<?xml version="1.0" standalone="no"?>
<!DOCTYPE svg PUBLIC "-//W3C//DTD SVG 20010904//EN"
 "http://www.w3.org/TR/2001/REC-SVG-20010904/DTD/svg10.dtd">
<svg version="1.0" xmlns="http://www.w3.org/2000/svg"
 width="512.000000pt" height="512.000000pt" viewBox="0 0 512.000000 512.000000"
 preserveAspectRatio="xMidYMid meet">
<metadata>
Created by potrace 1.14, written by Peter Selinger 2001-2017
</metadata>
<g transform="translate(0.000000,512.000000) scale(0.100000,-0.100000)"
fill="#000000" stroke="none">
<path d="M2 4258 c2 -679 6 -862 16 -866 8 -2 10 2 5 14 -4 12 -2 15 8 12 8
-3 20 2 28 9 7 8 20 12 28 8 10 -3 13 -1 10 9 -4 9 2 17 14 21 10 4 19 13 19
21 0 9 10 14 28 14 19 0 23 3 13 9 -10 7 -5 11 17 16 18 3 36 4 42 0 5 -3 10
0 10 8 0 8 10 17 22 20 18 5 19 8 8 22 -12 14 -11 18 1 26 19 12 93 11 106 -2
13 -13 118 -8 119 6 2 24 17 45 33 45 26 0 33 11 18 28 -10 13 -9 15 4 10 12
-5 23 5 39 35 69 124 221 332 344 469 174 196 407 378 613 482 40 20 79 36 88
36 8 0 15 4 15 8 0 4 12 15 28 23 28 17 97 15 108 -2 3 -5 16 -9 29 -9 16 0
30 -10 41 -29 11 -19 23 -27 32 -23 9 3 13 1 9 -5 -14 -23 81 -83 132 -83 16
0 32 -4 36 -10 3 -5 12 -7 20 -3 8 3 15 0 15 -6 0 -14 107 -15 115 0 4 6 -1
17 -11 24 -17 13 -14 14 32 15 75 0 92 31 57 105 -15 31 -23 36 -75 47 -32 7
-58 15 -58 18 0 4 -11 20 -25 36 -22 26 -32 30 -102 34 l-78 5 55 18 c100 32
294 67 410 73 108 6 414 -6 342 -14 -44 -4 -96 -34 -100 -57 -3 -11 0 -15 7
-11 8 5 8 -1 -1 -18 -6 -15 -9 -28 -7 -31 9 -9 124 -12 142 -3 9 5 17 15 17
23 0 7 10 15 23 17 14 2 29 16 40 40 18 37 20 38 60 32 232 -35 543 -160 777
-311 216 -140 468 -353 551 -467 16 -21 29 -36 29 -32 0 4 9 2 21 -4 11 -7 18
-17 16 -24 -3 -8 3 -12 16 -11 27 2 67 -15 67 -28 0 -5 -7 -7 -15 -3 -9 3 -15
0 -15 -9 0 -8 -7 -18 -15 -22 -12 -7 -3 -23 44 -81 33 -41 62 -79 64 -85 3 -9
8 -9 19 1 9 7 20 12 24 11 5 -1 17 1 26 5 10 5 32 0 53 -10 19 -9 38 -14 41
-11 3 3 17 -6 31 -19 15 -14 29 -21 32 -17 5 7 15 8 45 4 5 0 3 -7 -3 -14 -8
-11 -5 -19 14 -37 31 -29 36 -63 5 -35 -12 11 -20 13 -20 6 0 -7 -5 -9 -10 -6
-6 4 -18 1 -27 -6 -11 -10 -49 -14 -129 -13 -62 0 -111 -3 -108 -8 3 -4 15 -6
27 -3 13 4 34 2 47 -3 l25 -10 -28 -7 c-15 -4 -43 -4 -63 -1 -31 6 -39 3 -69
-27 -27 -27 -35 -43 -35 -70 0 -26 -6 -40 -22 -51 l-22 -16 25 0 c14 0 34 -9
44 -20 10 -11 36 -25 57 -32 21 -6 38 -15 38 -21 0 -5 28 -6 70 -2 39 4 70 3
70 -1 -1 -13 -23 -39 -35 -40 -6 -1 -25 -4 -42 -7 -25 -5 -33 -3 -33 8 0 8 -5
15 -12 15 -6 0 -19 7 -28 15 -24 22 -40 12 -80 -47 -19 -28 -39 -56 -44 -63
-19 -25 3 -63 49 -85 25 -12 45 -23 45 -25 0 -2 -18 -14 -40 -26 -47 -26 -52
-49 -12 -49 34 0 46 -9 50 -37 3 -19 -1 -23 -25 -23 -25 0 -30 -5 -42 -47 -7
-27 -13 -64 -14 -82 -2 -31 1 -36 29 -41 39 -8 89 -45 103 -76 14 -31 45 -31
59 1 17 36 15 70 -4 86 -10 8 -14 23 -11 43 3 17 -2 46 -9 65 -8 18 -14 34
-14 35 0 1 18 0 40 -2 25 -3 40 0 40 7 0 7 -22 11 -55 11 -30 0 -55 4 -55 9 0
5 8 7 18 5 11 -3 21 3 27 18 11 25 39 26 66 2 18 -16 27 -124 10 -124 -7 0
-11 -52 -11 -150 0 -82 -4 -150 -8 -150 -19 0 -32 27 -32 64 -1 34 -3 38 -13
26 -7 -9 -18 -15 -24 -14 -7 1 -31 2 -53 3 -32 1 -38 4 -33 18 4 10 2 14 -5 9
-6 -3 -13 -2 -16 3 -4 5 2 12 11 14 14 4 13 5 -4 6 -14 1 -23 7 -23 17 0 10
-7 14 -17 12 -10 -2 -17 -10 -16 -16 4 -16 -5 -15 -23 3 -12 12 -14 59 -12
294 3 257 2 280 -14 284 -12 4 -19 20 -24 56 -4 33 -11 51 -20 51 -11 0 -14
22 -14 103 0 64 -4 97 -9 88 -5 -8 -8 -23 -6 -33 3 -12 -2 -18 -15 -18 -14 0
-20 9 -23 38 -2 20 -4 -7 -5 -60 -2 -94 -3 -98 -24 -99 -17 -1 -19 -2 -5 -6
20 -5 24 -61 7 -94 -10 -17 -7 -19 25 -19 34 0 35 -1 29 -27 -4 -16 -12 -31
-18 -35 -7 -5 -5 -8 6 -8 11 0 15 -6 11 -20 -3 -11 0 -20 6 -20 6 0 11 -9 11
-20 0 -11 -4 -20 -10 -20 -5 0 -10 -9 -10 -20 0 -23 -4 -24 -31 -10 -15 8 -19
22 -19 60 0 28 5 50 10 50 6 0 10 13 10 30 0 25 -4 30 -35 36 -19 3 -43 3 -52
-1 -16 -7 -15 -8 5 -14 13 -3 23 -9 23 -13 -1 -5 -1 -15 -1 -24 0 -12 -7 -15
-27 -11 -24 4 -26 4 -10 -8 9 -7 17 -23 18 -36 l1 -24 8 25 c7 22 8 21 9 -12
1 -28 -3 -38 -14 -38 -8 0 -23 -8 -33 -18 -17 -17 -19 -36 -18 -200 1 -141 -2
-182 -12 -182 -18 0 -32 44 -32 103 0 62 -16 48 -26 -23 -10 -74 -14 -83 -30
-69 -8 6 -13 23 -12 38 1 15 -2 33 -7 40 -13 22 -16 69 -4 77 7 4 4 13 -7 25
-9 10 -18 31 -20 45 -1 15 -7 30 -12 33 -5 3 -8 14 -6 24 1 9 -1 17 -6 17 -5
0 -7 8 -5 18 1 9 -1 22 -5 27 -13 19 -20 46 -10 40 6 -3 10 -2 10 3 0 5 -9 12
-20 15 -15 4 -20 14 -20 41 0 25 -4 36 -15 36 -8 0 -15 3 -16 8 0 4 -2 17 -3
30 -2 12 -12 31 -24 42 -12 12 -19 29 -18 45 2 17 -2 25 -13 26 -12 0 -12 2
-3 6 10 4 7 9 -10 17 -12 6 -23 18 -23 26 0 8 -12 27 -28 43 -23 23 -25 29
-12 34 14 5 13 8 -4 25 -30 27 -26 30 13 12 44 -22 141 -12 156 15 5 10 6 21
3 25 -3 3 11 6 33 6 44 0 70 13 60 29 -5 7 2 11 16 12 13 0 17 3 10 6 -14 5
28 43 48 43 10 0 10 3 1 14 -9 10 -9 16 -1 21 6 4 9 13 6 21 -3 8 1 14 9 14
23 0 29 22 11 36 -11 7 -13 14 -7 19 25 15 31 43 14 61 -13 13 -14 19 -5 22 7
2 10 8 6 13 -3 5 -1 9 5 9 13 0 9 49 -5 58 -17 11 -36 52 -24 52 10 0 -10 63
-36 113 -8 15 -12 27 -8 27 4 0 -2 8 -14 18 -11 10 -24 30 -27 45 -4 15 -16
34 -27 42 -16 10 -19 20 -14 40 6 24 5 25 -14 15 -18 -10 -25 -8 -41 11 -10
12 -31 23 -47 24 -18 1 -26 6 -24 17 1 9 -7 18 -18 21 -13 3 -20 13 -20 28 0
21 -1 22 -20 4 -13 -12 -20 -14 -20 -5 0 7 -8 10 -20 7 -11 -3 -20 -1 -20 5 0
14 -27 38 -34 31 -13 -13 -47 -10 -42 4 7 18 -4 16 -26 -4 -18 -16 -18 -16
-12 1 6 16 3 16 -32 -3 -21 -12 -47 -18 -56 -15 -10 3 -18 0 -18 -6 0 -8 -10
-10 -25 -8 -14 3 -30 -1 -36 -8 -6 -8 -20 -14 -30 -14 -10 0 -21 -4 -24 -10
-3 -5 -13 -10 -21 -10 -30 0 -74 -64 -74 -110 0 -16 -4 -30 -10 -30 -5 0 -10
-24 -10 -52 -1 -73 -15 -137 -33 -156 -15 -14 -20 -14 -54 1 -21 9 -69 23
-107 32 -38 9 -81 21 -95 27 -90 35 -155 42 -301 35 -25 -1 -66 1 -92 4 -26 3
-53 2 -60 -2 -8 -4 -35 -10 -61 -13 -26 -3 -56 -10 -67 -16 -10 -5 -41 -10
-69 -10 -29 0 -88 -13 -141 -31 -51 -17 -94 -28 -97 -26 -12 13 -33 119 -33
174 0 34 -5 65 -10 68 -6 3 -10 21 -10 40 0 35 -14 55 -23 33 -3 -7 -6 -2 -7
12 -1 34 -28 70 -39 52 -6 -10 -10 -10 -21 3 -7 8 -19 15 -27 15 -8 0 -25 11
-38 24 -21 21 -32 24 -80 21 -30 -2 -60 -7 -65 -10 -6 -3 -10 -1 -10 5 0 7 -6
8 -17 2 -20 -10 -44 -5 -55 12 -5 6 -8 1 -8 -11 0 -21 -14 -29 -42 -24 -5 0
-8 -4 -8 -9 0 -22 -29 -8 -38 18 l-10 27 -1 -27 c-1 -32 -17 -46 -24 -21 -3
13 -5 12 -6 -5 0 -13 -5 -21 -10 -18 -4 3 -17 -1 -27 -8 -21 -16 -44 -5 -44
23 -1 14 -2 13 -11 -2 -6 -10 -8 -29 -5 -42 4 -17 0 -28 -16 -39 -12 -8 -25
-13 -30 -10 -5 3 -12 -3 -15 -15 -3 -11 -9 -18 -14 -15 -5 3 -9 0 -9 -6 0 -7
-7 -10 -14 -7 -10 4 -13 1 -9 -9 3 -8 -1 -14 -11 -14 -18 0 -20 -8 -7 -29 6
-9 5 -24 -2 -38 -8 -19 -16 -23 -34 -18 -17 4 -21 2 -17 -9 3 -8 12 -17 20
-20 8 -3 14 -11 14 -17 0 -9 -4 -8 -14 0 -12 10 -14 8 -12 -13 2 -14 -2 -27
-9 -30 -8 -3 -11 -19 -9 -45 3 -36 1 -41 -17 -41 -19 0 -19 -2 -5 -21 18 -27
11 -49 -18 -50 -19 -1 -19 -2 4 -9 14 -4 19 -8 12 -9 -9 -1 -10 -6 -4 -18 5
-10 8 -31 8 -48 -1 -18 5 -33 14 -37 12 -5 12 -7 -2 -7 -29 -1 -21 -38 12 -58
31 -18 37 -28 20 -38 -14 -8 -1 -33 21 -40 10 -4 18 -11 16 -16 -1 -6 12 -18
29 -28 17 -9 29 -22 27 -28 -3 -7 17 -14 49 -18 29 -4 58 -12 65 -17 7 -5 33
-10 58 -10 47 0 57 -10 28 -27 -12 -7 -13 -10 -5 -11 9 0 6 -10 -10 -29 -24
-30 -61 -91 -62 -103 -1 -4 -7 -13 -13 -20 -7 -6 -13 -20 -13 -29 0 -10 -5
-21 -10 -24 -6 -4 -8 -10 -5 -15 3 -4 -2 -13 -10 -20 -8 -7 -15 -19 -15 -26 0
-8 -5 -14 -11 -14 -5 0 -7 -4 -4 -10 3 -5 2 -10 -3 -10 -5 0 -17 -16 -26 -35
-9 -19 -21 -37 -26 -40 -6 -3 -10 -16 -10 -28 0 -12 -7 -31 -15 -41 -8 -10
-12 -23 -9 -27 3 -5 -6 -25 -20 -46 l-25 -37 0 93 c0 71 -3 97 -15 110 -20 22
-20 34 -1 71 14 28 18 29 93 32 69 3 77 5 77 23 0 16 -6 19 -28 17 -27 -3 -28
-2 -16 20 7 13 19 29 28 36 15 11 14 13 -1 25 -10 8 -14 18 -10 23 4 5 0 2 -9
-8 -16 -17 -17 -16 -22 3 -4 15 -12 20 -29 17 -13 -2 -22 -7 -21 -13 3 -16
-29 -45 -64 -60 -20 -9 -35 -23 -39 -39 -6 -25 -10 -26 -73 -27 -120 -2 -124
-17 -4 -18 l113 -1 -18 -32 c-21 -38 -65 -63 -90 -52 -16 7 -16 7 1 11 9 3 17
9 17 15 0 7 -16 8 -46 4 -26 -3 -53 -6 -60 -6 -8 0 -14 -4 -14 -9 0 -5 8 -7
18 -5 9 3 28 1 42 -5 24 -9 24 -10 -10 -12 -19 -1 -38 -1 -42 0 -5 0 -8 -8 -8
-19 0 -17 -3 -19 -19 -10 -11 5 -23 10 -28 10 -4 -1 5 -8 20 -16 27 -15 28
-19 27 -82 -1 -37 -1 -83 -1 -103 l1 -37 45 6 c55 6 60 -11 9 -28 -28 -10 -38
-10 -44 0 -9 15 -20 -38 -20 -101 l0 -49 -37 0 c-80 0 -83 -4 -83 -87 l0 -75
-42 7 c-24 4 -44 11 -46 16 -2 4 -16 24 -31 43 -25 31 -29 46 -35 131 -3 53
-3 125 0 161 6 55 4 67 -11 77 -10 8 -16 23 -13 38 3 22 7 24 53 22 37 -2 45
0 30 7 -11 5 -37 9 -57 9 -32 1 -38 5 -39 24 -1 17 -2 18 -6 4 -3 -12 -12 -17
-26 -15 -22 3 -27 22 -7 24 23 3 24 6 5 13 -11 5 -25 5 -31 0 -8 -7 -10 -1 -7
18 3 21 2 24 -5 14 -8 -11 -11 -9 -15 10 -3 13 -3 -2 0 -33 4 -49 3 -58 -11
-58 -10 0 -13 6 -10 15 5 12 -2 15 -34 15 -50 0 -92 -18 -92 -39 0 -12 2 -12
13 2 9 13 21 15 50 10 26 -4 34 -9 25 -14 -10 -7 -10 -9 0 -9 26 0 11 -18 -20
-24 -33 -6 -33 -7 -31 -58 2 -29 4 -132 5 -229 3 -146 1 -173 -10 -162 -7 7
-10 17 -7 23 3 5 2 10 -4 10 -5 0 -12 -14 -16 -31 -4 -19 -11 -27 -16 -22 -6
6 -28 8 -49 6 -38 -4 -55 9 -27 20 9 4 9 6 -1 6 -6 1 -20 -17 -29 -39 -10 -22
-21 -40 -25 -40 -21 0 10 265 52 448 21 91 22 92 51 92 19 0 28 4 24 10 -4 6
-14 8 -24 5 -9 -3 -25 1 -35 8 -22 16 -11 47 18 48 16 1 17 2 4 6 -21 5 -23
19 -6 26 7 3 4 6 -6 6 -36 2 -87 25 -82 38 3 7 -1 10 -9 6 -8 -3 -13 -9 -10
-13 3 -5 -9 -5 -26 0 -42 12 -89 2 -82 -17 4 -9 -2 -16 -16 -20 -22 -6 -27
-18 -11 -28 21 -13 8 -26 -24 -23 -24 1 -36 8 -39 20 -3 11 -14 18 -31 18
l-26 0 0 -1645 0 -1645 2560 0 2560 0 0 1600 c0 880 -3 1600 -7 1600 -5 0 -28
-7 -52 -15 -48 -17 -76 -13 -91 15 -16 29 13 50 66 48 24 0 47 2 51 5 3 4 12
2 20 -4 11 -10 13 144 13 930 l0 941 -2560 0 -2560 0 2 -862z m556 374 c3 -11
0 -12 -18 -2 -12 6 -25 8 -28 4 -4 -4 -1 -9 6 -11 14 -5 17 -23 3 -23 -12 0
-23 29 -15 41 8 14 47 7 52 -9z m-118 -2 c11 -8 7 -9 -15 -4 -37 8 -45 14 -19
14 10 0 26 -5 34 -10z m279 -113 c11 -14 5 -27 -11 -27 -5 0 -6 5 -2 11 3 6 0
15 -7 20 -8 5 -9 9 -3 9 6 0 17 -6 23 -13z m-41 -14 c6 -19 -25 -16 -32 3 -4
11 -1 14 11 12 9 -2 18 -9 21 -15z m722 1 c0 -8 -4 -12 -10 -9 -5 3 -10 10
-10 16 0 5 5 9 10 9 6 0 10 -7 10 -16z m-670 -36 c0 -11 -12 -10 -30 2 -12 7
-10 9 8 7 12 0 22 -5 22 -9z m3620 -38 c0 -5 -2 -10 -4 -10 -3 0 -8 5 -11 10
-3 6 -1 10 4 10 6 0 11 -4 11 -10z m-3055 -70 c3 -5 2 -10 -4 -10 -5 0 -13 5
-16 10 -3 6 -2 10 4 10 5 0 13 -4 16 -10z m3515 -90 c14 -14 28 -18 44 -14 18
4 27 0 36 -15 6 -12 17 -21 24 -21 7 0 27 -16 45 -36 26 -28 35 -33 47 -23 14
11 16 9 18 -21 2 -22 -58 -104 -79 -108 -12 -3 -15 0 -10 9 6 9 2 10 -16 6
-57 -16 -129 -20 -129 -7 0 7 -7 10 -15 7 -8 -4 -17 -2 -20 3 -8 13 -44 8 -49
-7 -3 -7 -11 -13 -17 -13 -9 0 -9 3 0 14 9 11 8 15 -5 20 -24 9 -66 7 -59 -3
3 -6 -9 -6 -29 0 -19 5 -38 9 -43 7 -4 -1 -25 6 -46 15 -43 19 -47 44 -9 63
12 6 30 18 40 27 10 10 26 17 35 17 9 0 21 8 26 19 11 20 87 55 101 46 5 -3
18 3 30 15 25 25 54 26 80 0z m-1975 -51 c32 -13 40 -15 68 -17 10 -1 15 -7
12 -12 -4 -6 -3 -10 2 -9 4 1 36 -1 70 -6 40 -5 60 -11 57 -19 -4 -11 3 -13
66 -17 21 -2 27 -6 20 -14 -5 -7 -7 -15 -3 -19 4 -3 -2 -12 -12 -20 -18 -13
-17 -13 9 -11 20 3 26 0 22 -11 -10 -25 5 -44 35 -44 16 0 29 -4 29 -10 0 -5
7 -10 15 -10 8 0 15 -7 15 -16 0 -9 11 -25 25 -36 14 -11 23 -23 20 -28 -5 -8
23 -25 37 -22 4 1 5 -5 2 -13 -9 -22 -61 -19 -73 4 -6 10 -23 22 -38 26 -19 4
-23 9 -14 15 20 12 5 27 -35 34 -19 4 -43 10 -52 13 -9 3 -2 -9 16 -26 19 -16
42 -33 52 -36 11 -4 17 -12 13 -21 -3 -8 1 -14 9 -14 18 0 53 -40 35 -41 -16
-1 32 -17 57 -18 15 -1 16 1 6 14 -15 18 -14 20 22 29 21 5 28 2 33 -14 3 -11
16 -22 29 -26 26 -6 33 -43 8 -45 -9 -1 -1 -6 18 -13 38 -12 100 -45 87 -46
-4 0 -24 7 -44 15 -19 8 -59 15 -87 14 l-51 -1 50 -13 50 -14 -57 6 c-39 4
-58 2 -58 -6 0 -6 12 -11 28 -11 78 0 137 -29 64 -31 -24 0 -25 -1 -7 -9 17
-8 16 -9 -9 -9 -21 -1 -27 3 -22 15 3 8 2 13 -3 10 -5 -3 -28 1 -51 9 -53 19
-84 20 -55 2 18 -11 16 -13 -25 -18 l-45 -6 57 -1 c31 -1 60 -6 63 -12 3 -5
33 -10 66 -10 40 0 65 -5 75 -15 9 -8 26 -15 40 -15 24 0 35 -19 12 -21 -7 0
-4 -4 7 -9 15 -6 5 -9 -35 -9 -34 -1 -50 -5 -42 -10 17 -11 17 -21 0 -32 -9
-6 -6 -9 12 -10 17 -1 19 -3 8 -6 -10 -2 -18 -9 -18 -14 0 -5 -11 -9 -24 -9
-34 0 -111 -36 -96 -45 9 -6 9 -9 0 -15 -8 -5 -2 -10 18 -15 42 -9 55 0 41 27
-13 24 1 38 39 38 20 0 21 -3 12 -20 -9 -18 -7 -20 17 -21 45 -3 57 -5 78 -13
11 -4 26 -10 33 -12 7 -2 10 -8 7 -14 -3 -5 -1 -10 4 -10 6 0 11 -7 11 -15 0
-8 -4 -15 -10 -15 -5 0 -10 -4 -10 -10 0 -5 6 -10 14 -10 8 0 22 -7 30 -16 15
-14 16 -14 16 6 0 20 1 20 30 5 17 -9 30 -18 30 -21 0 -3 -6 -2 -12 2 -10 6
-10 4 0 -8 8 -10 9 -18 3 -22 -6 -4 -8 -13 -5 -21 7 -17 -34 -8 -54 12 -7 7
-22 13 -33 13 -11 0 -18 4 -15 9 7 10 -52 26 -61 17 -4 -3 -1 -6 5 -6 7 0 21
-9 31 -19 14 -14 16 -22 8 -30 -12 -12 18 -17 78 -13 24 2 39 -6 65 -34 26
-27 28 -33 10 -21 -29 20 -44 22 -33 5 4 -7 9 -22 11 -33 1 -11 14 -30 27 -43
14 -13 25 -25 25 -27 0 -6 -32 6 -47 17 -7 5 -14 5 -18 -2 -3 -5 0 -10 8 -10
17 0 111 -70 103 -77 -3 -3 -26 7 -51 22 -41 23 -45 24 -33 6 7 -11 25 -26 40
-32 38 -15 42 -24 21 -45 -17 -17 -17 -18 1 -11 13 5 17 3 13 -6 -3 -9 2 -13
15 -13 12 1 23 -5 25 -12 4 -9 -7 -11 -39 -7 -40 4 -42 4 -24 -10 20 -15 17
-18 -19 -16 -17 1 -17 -1 3 -9 13 -6 29 -7 35 -3 7 3 9 2 4 -2 -4 -5 3 -20 15
-33 l23 -25 -22 6 c-31 7 -28 -3 7 -33 39 -31 38 -41 -2 -29 -49 14 -67 10
-35 -7 30 -16 36 -34 11 -34 -24 0 -5 -20 33 -37 19 -8 33 -17 30 -19 -3 -3
-14 -1 -25 5 -12 6 -28 11 -38 11 -14 0 -14 -2 -3 -16 11 -13 11 -15 -2 -14
-31 5 -44 -1 -21 -10 32 -13 28 -32 -5 -25 -26 6 -26 5 -10 -8 20 -17 23 -37
5 -37 -7 0 -5 -5 5 -11 30 -18 21 -39 -15 -34 -24 4 -21 1 12 -9 26 -8 37 -15
25 -16 -11 -1 -14 -4 -7 -7 20 -8 14 -23 -10 -23 -18 0 -20 -2 -9 -9 12 -8 12
-13 3 -24 -10 -12 -7 -15 19 -21 18 -3 28 -10 24 -17 -4 -6 -19 -8 -34 -5
l-26 6 30 -25 c30 -25 28 -33 -4 -15 -13 6 -37 2 -85 -14 -37 -13 -61 -26 -54
-29 8 -4 7 -6 -5 -6 -10 -1 -27 -10 -39 -21 -12 -10 -25 -17 -30 -14 -5 3 -17
0 -26 -7 -9 -8 4 8 29 35 51 53 82 128 98 239 13 86 25 113 55 121 23 6 26 11
26 54 0 75 -17 120 -51 138 -48 25 -122 44 -143 38 -13 -4 -16 -2 -11 6 5 9 1
10 -15 5 -17 -5 -20 -4 -15 5 6 10 1 12 -18 8 -15 -3 -28 -1 -30 5 -4 13 -351
10 -513 -4 -135 -12 -381 -8 -667 12 -143 9 -209 10 -275 1 -48 -6 -100 -9
-117 -7 -16 2 -21 2 -10 -2 13 -4 -5 -13 -60 -29 -96 -28 -102 -28 -50 -3 49
24 35 22 -76 -14 -86 -27 -87 -28 -93 -65 -11 -71 -7 -119 12 -128 9 -4 20 -7
23 -6 4 1 5 -9 2 -21 -4 -18 -3 -19 7 -7 9 12 10 2 5 -40 -5 -42 -4 -52 5 -40
9 12 10 4 6 -33 -4 -30 -2 -46 4 -42 6 4 7 -6 3 -26 -4 -22 -3 -30 5 -26 6 5
8 0 5 -11 -2 -11 2 -25 9 -33 8 -8 26 -34 40 -59 33 -55 72 -100 87 -100 6 0
10 -3 9 -7 -3 -16 15 -43 28 -43 8 0 11 -6 7 -17 -4 -10 -2 -14 4 -10 6 4 18
4 27 1 13 -5 14 -9 5 -20 -12 -14 -7 -18 22 -15 9 1 19 -7 22 -19 4 -14 10
-18 24 -14 15 5 15 4 3 -5 -22 -15 -6 -23 24 -11 15 5 46 10 69 11 62 1 85 11
105 42 10 15 43 45 73 67 30 23 110 99 179 169 138 141 203 184 304 196 86 11
116 -4 145 -73 14 -31 41 -79 62 -107 41 -56 167 -185 181 -185 5 0 6 -4 3
-10 -3 -5 -2 -10 3 -10 6 0 8 -8 5 -19 -2 -10 2 -39 11 -64 9 -26 13 -53 10
-61 -7 -19 38 -66 63 -66 13 0 10 -5 -12 -20 l-29 -19 24 -10 c14 -5 19 -10
12 -10 -7 -1 -11 -5 -7 -10 12 -20 -32 -16 -77 6 -46 22 -70 16 -28 -7 11 -6
18 -15 15 -21 -4 -5 5 -9 19 -9 50 0 58 -10 26 -36 -16 -14 -32 -33 -35 -44
-4 -12 -12 -17 -22 -13 -12 5 -15 2 -10 -9 4 -12 -2 -19 -21 -27 -15 -5 -51
-19 -81 -30 -30 -11 -59 -17 -65 -14 -6 4 -4 -2 4 -12 14 -17 13 -18 -2 -12
-10 3 -20 2 -23 -3 -6 -10 -24 -8 -44 4 -10 7 -12 5 -6 -4 5 -8 2 -11 -11 -7
-11 3 -49 8 -86 12 -40 4 -68 11 -69 18 -5 46 33 87 124 133 37 19 85 51 107
70 22 20 40 32 40 27 0 -15 -22 -38 -65 -69 -22 -16 -42 -31 -45 -34 -18 -18
-72 -50 -94 -56 -14 -3 -26 -10 -26 -15 0 -5 -6 -8 -12 -7 -7 2 -13 -6 -13
-17 0 -20 -3 -19 130 -28 28 -1 56 -6 63 -11 8 -5 12 0 12 16 0 17 10 29 38
43 45 23 73 50 70 66 -2 7 8 16 22 20 14 4 20 7 13 8 -6 1 -14 15 -18 31 -5
21 -14 32 -33 37 l-27 7 30 7 c27 6 28 7 5 8 -38 2 -47 12 -52 64 -6 53 -25
79 -69 97 -33 14 -113 6 -132 -14 -10 -11 -14 -11 -22 1 -9 12 -15 12 -40 -1
-17 -9 -33 -12 -38 -7 -5 5 -16 7 -23 4 -8 -3 -14 -1 -14 4 0 5 -6 10 -12 11
-7 0 -33 6 -57 13 -33 9 -48 9 -62 1 -24 -15 -50 -16 -29 -1 12 8 9 9 -10 4
-62 -16 -90 -98 -55 -164 23 -46 89 -95 160 -120 51 -18 72 -31 86 -55 22 -36
24 -69 7 -83 -51 -39 -222 -36 -285 5 -14 8 -23 10 -23 4 0 -6 5 -14 10 -17 6
-4 17 -22 25 -41 8 -19 22 -37 32 -40 10 -3 26 -10 36 -15 11 -6 23 -5 35 2
13 8 29 8 60 -1 38 -10 42 -13 30 -27 -10 -13 -6 -12 17 3 24 16 28 16 23 3
-4 -10 -1 -16 8 -16 8 0 14 3 14 6 0 4 36 6 81 6 44 0 83 3 86 8 3 5 12 2 21
-5 23 -19 79 -23 99 -7 8 7 22 14 31 16 9 1 21 8 27 15 5 7 17 14 26 16 15 2
17 -8 10 -61 -1 -4 -7 -7 -14 -5 -6 2 -22 -7 -35 -20 -12 -12 -27 -20 -31 -17
-5 2 -14 -2 -21 -10 -6 -7 -18 -11 -25 -9 -7 3 -24 0 -37 -7 -13 -7 -29 -12
-37 -10 -8 1 -10 -2 -6 -11 6 -10 5 -11 -6 0 -23 21 -32 13 -26 -26 5 -31 4
-34 -5 -17 -23 39 -36 47 -47 28 -8 -14 -11 -15 -11 -3 -1 10 -4 9 -10 -5 -8
-18 -9 -18 -10 5 -1 14 -4 19 -7 12 -2 -6 -9 -10 -14 -6 -5 3 -9 -5 -10 -18
-1 -23 -1 -23 -9 2 l-7 25 -10 -24 -10 -25 -7 25 c-5 16 -9 19 -13 10 -5 -11
-7 -11 -14 0 -8 12 -11 11 -19 -1 -5 -8 -10 -10 -10 -5 0 6 -5 3 -11 -5 -9
-12 -10 -10 -6 8 5 19 3 21 -9 11 -8 -6 -14 -8 -14 -4 0 5 -8 0 -19 -9 -17
-16 -18 -15 -16 9 2 14 0 25 -3 25 -4 0 -31 -24 -61 -52 -53 -52 -54 -52 -22
-11 18 24 36 45 41 48 17 11 -1 32 -26 29 -13 -1 -22 2 -19 6 7 12 -26 28 -45
23 -13 -4 -13 -3 -1 5 8 6 16 18 17 27 2 12 -3 14 -19 9 -19 -6 -20 -5 -9 9
17 20 2 29 -35 22 l-28 -6 25 15 c14 8 21 16 15 16 -5 0 -3 5 5 11 11 8 7 9
-20 6 -19 -3 -29 -3 -21 0 11 5 11 7 0 15 -10 6 -6 7 11 3 l25 -6 -24 14 -24
15 24 7 c23 8 23 8 4 16 -19 7 -19 8 -1 8 16 1 17 3 5 18 -10 11 -10 14 -1 9
18 -11 14 5 -5 20 -10 7 -27 14 -38 14 -17 0 -17 2 -5 10 12 8 12 10 -5 10
-16 0 -17 2 -6 9 11 7 9 10 -10 13 -13 2 -23 9 -21 16 1 6 -8 12 -20 13 -23 0
-23 0 1 10 l25 10 -22 15 c-14 9 -31 13 -43 9 -15 -5 -19 -4 -15 4 4 6 16 11
26 11 10 0 21 4 25 9 3 6 -7 6 -27 0 -46 -13 -57 -11 -28 6 l25 14 -25 2 c-14
1 -34 3 -44 3 -30 2 -28 34 2 51 16 8 21 15 12 15 -13 1 -12 3 2 13 11 9 14
18 8 27 -7 11 -14 11 -42 -3 -18 -9 -26 -17 -18 -17 13 -1 13 -2 0 -13 -8 -7
-20 -21 -26 -31 -5 -11 -18 -20 -27 -22 -9 -1 -15 2 -11 7 3 5 -5 9 -17 9
l-22 0 24 23 c18 18 27 21 38 13 12 -9 12 -8 0 11 -9 16 -16 19 -21 10 -4 -7
-8 -8 -8 -3 0 6 -5 5 -12 -2 -7 -7 -21 -12 -31 -12 -17 0 -18 2 -6 16 9 11 -3
8 -39 -10 -28 -14 -52 -31 -52 -37 0 -5 -6 -7 -12 -3 -10 6 -9 3 0 -8 8 -9 21
-14 30 -11 11 3 8 -3 -8 -18 -14 -13 -24 -23 -23 -23 2 1 18 -12 34 -27 17
-16 37 -29 45 -29 8 0 14 -5 14 -10 0 -6 3 -9 8 -9 19 3 22 -3 11 -22 -11 -21
-10 -21 12 -5 24 17 44 21 35 8 -2 -4 15 -7 39 -7 45 1 50 -11 14 -34 -15 -9
-24 -10 -32 -2 -8 8 -6 11 5 11 9 0 19 4 22 9 10 16 -18 6 -52 -18 -18 -12
-44 -24 -57 -26 -14 -1 -32 -8 -42 -16 -14 -12 -14 -11 2 14 17 27 17 27 -1
21 -11 -4 -26 -12 -34 -17 -8 -6 -2 2 13 17 39 38 26 45 -23 12 -42 -27 -62
-34 -42 -14 19 19 14 30 -8 18 -18 -10 -19 -9 -10 15 13 35 13 38 -6 31 -9 -4
-24 -1 -32 6 -9 8 -13 8 -9 2 4 -7 -2 -14 -13 -17 -18 -5 -25 4 -21 26 1 5 -8
5 -20 2 -16 -5 -19 -4 -14 6 6 9 4 11 -7 6 -27 -10 -30 6 -6 25 21 17 21 19 3
16 -13 -2 -19 2 -17 11 2 10 -1 12 -10 5 -7 -6 -26 -8 -43 -4 -24 4 -26 7 -12
12 33 14 19 29 -20 23 -29 -5 -34 -4 -23 4 13 10 13 12 0 22 -10 7 -11 12 -4
15 6 3 20 12 30 20 11 8 1 6 -23 -6 -54 -26 -57 -25 -38 4 16 24 16 24 -20 22
-52 -2 -63 10 -21 24 43 14 53 26 26 33 -12 3 -18 1 -14 -5 3 -5 -10 1 -29 13
-19 13 -33 27 -31 31 3 5 -2 8 -11 8 -9 0 -13 5 -10 10 3 6 1 10 -6 10 -6 0
-1 9 12 19 23 19 23 20 3 15 -16 -4 -23 0 -27 15 -3 12 -2 21 2 21 4 0 8 7 8
15 0 9 -6 14 -13 11 -7 -3 -20 4 -29 14 -15 17 -15 20 0 44 17 25 16 28 -14
30 -8 1 -19 10 -25 21 -6 11 -14 23 -19 26 -4 3 2 14 13 24 23 21 26 35 6 35
-8 0 -16 7 -20 15 -3 8 0 15 6 15 7 0 6 5 -2 15 -7 8 -20 15 -29 15 -12 0 -13
2 -3 9 8 4 12 11 10 15 -1 4 8 14 22 23 15 8 17 12 6 8 -17 -5 -17 -4 -5 12
12 15 12 16 -5 10 -15 -6 -17 -5 -8 6 12 14 6 27 -12 27 -6 0 -5 -4 2 -9 11
-7 11 -9 -1 -14 -10 -4 -14 0 -12 11 2 9 4 20 4 24 1 4 8 14 17 22 14 15 14
16 -4 16 -27 0 -23 19 16 66 18 21 32 44 32 50 0 7 3 21 6 31 3 10 -6 -1 -20
-23 -14 -23 -35 -44 -46 -47 -17 -4 -19 -3 -9 9 8 10 8 14 0 14 -6 0 -2 9 9
20 11 11 20 30 20 43 0 12 4 28 9 36 7 10 4 19 -7 28 -9 7 -12 13 -6 13 15 0
13 30 -2 30 -16 0 -9 24 18 60 10 14 19 38 20 53 1 16 8 33 15 39 7 6 13 20
13 31 0 11 8 29 17 40 13 15 14 18 3 12 -13 -8 -13 -7 0 11 8 10 20 25 27 32
6 7 10 21 8 31 -2 11 8 30 25 46 16 16 27 31 25 35 -3 4 4 15 15 25 11 10 20
23 20 29 0 6 14 25 30 43 34 36 37 45 14 36 -14 -5 -15 -3 -5 15 6 11 16 24
21 27 6 4 8 11 5 16 -4 5 -1 9 5 9 6 0 8 5 5 10 -3 6 -1 10 5 10 6 0 9 4 6 8
-3 5 4 19 15 31 11 12 27 37 35 56 8 19 21 35 29 35 8 0 15 6 15 13 0 8 27 27
60 43 54 26 60 32 56 55 -6 33 1 41 25 29 12 -7 20 -7 24 0 3 5 17 10 31 10
14 0 22 4 19 10 -3 6 -1 10 4 10 6 0 11 7 11 15 0 8 10 20 23 26 12 7 28 21
36 31 7 11 19 17 27 14 8 -3 14 -1 14 5 0 6 5 7 10 4 6 -4 9 -2 8 3 -2 6 -1 9
2 8 3 0 20 14 38 32 18 18 37 30 42 27 6 -3 10 -1 10 4 0 6 3 10 8 9 21 -5 81
18 124 50 43 31 49 39 46 64 -3 16 -1 31 3 33 3 3 35 9 70 15 35 5 98 16 139
25 44 9 119 15 183 14 59 -1 111 2 115 6 9 9 89 0 127 -16z m-2175 -5 c0 -2
-7 -4 -15 -4 -8 0 -15 4 -15 10 0 5 7 7 15 4 8 -4 15 -8 15 -10z m-47 -1 c-7
-2 -19 -2 -25 0 -7 3 -2 5 12 5 14 0 19 -2 13 -5z m3647 -638 c0 -50 -3 -65
-15 -65 -11 0 -13 11 -9 53 11 99 24 107 24 12z m-3820 35 c0 -5 -2 -10 -4
-10 -3 0 -8 5 -11 10 -3 6 -1 10 4 10 6 0 11 -4 11 -10z m3787 -47 c-3 -10 -5
-4 -5 12 0 17 2 24 5 18 2 -7 2 -21 0 -30z m-667 11 c0 -8 -5 -12 -10 -9 -6 4
-8 11 -5 16 9 14 15 11 15 -7z m-45 -14 c3 -5 17 -10 31 -10 13 0 24 -5 24
-11 0 -6 -8 -7 -22 -3 -20 7 -40 10 -95 13 -30 2 -10 21 21 21 19 0 38 -4 41
-10z m35 -40 c0 -5 -9 -10 -20 -10 -11 0 -20 5 -20 10 0 6 9 10 20 10 11 0 20
-4 20 -10z m-21 -31 c14 1 22 -2 18 -5 -7 -7 12 -28 33 -37 20 -7 -39 -8 -67
-1 -13 4 -23 13 -23 21 0 7 -6 13 -12 12 -25 -3 -38 1 -38 12 0 8 11 9 33 4
17 -4 43 -7 56 -6z m729 -26 c-2 -30 -7 -37 -26 -38 -18 -1 -22 3 -20 19 2 12
10 20 18 18 12 -3 13 -1 3 9 -19 19 -16 29 8 29 17 0 20 -5 17 -37z m-640 -8
c-9 -9 -30 14 -23 25 6 9 10 8 17 -4 6 -10 8 -19 6 -21z m1087 -15 c11 -13 16
-30 13 -50 -4 -23 -1 -30 13 -30 9 0 22 7 30 16 10 12 23 14 56 9 39 -6 43 -4
43 14 0 17 6 21 34 21 30 0 37 -5 59 -44 15 -27 21 -48 16 -53 -6 -6 3 -8 23
-6 l33 4 -27 -24 c-15 -14 -24 -28 -21 -31 13 -13 -31 -34 -49 -25 -11 6 -18
6 -18 0 0 -5 7 -11 15 -15 22 -8 18 -25 -5 -19 -11 3 -20 0 -20 -6 0 -6 -7
-11 -15 -11 -20 0 -55 -58 -47 -78 3 -10 1 -13 -6 -8 -7 4 -12 1 -12 -7 0 -8
-9 -17 -20 -20 -11 -3 -20 -1 -20 5 0 6 -11 3 -25 -6 -13 -9 -36 -15 -50 -14
-29 3 -29 2 -13 27 9 15 9 25 0 43 -10 21 -10 20 -5 -11 4 -24 3 -32 -5 -27
-14 8 -16 76 -3 76 11 0 6 131 -8 223 0 4 -1 10 -2 15 -1 4 -5 15 -10 24 -6
11 -5 18 4 21 20 9 23 8 42 -13z m-386 -116 c2 -2 -7 -4 -22 -4 -14 0 -29 5
-32 10 -6 10 42 4 54 -6z m-152 -46 c-2 -13 -4 -5 -4 17 -1 22 1 32 4 23 2
-10 2 -28 0 -40z m-3967 38 c0 -2 -9 -6 -20 -9 -11 -3 -18 -1 -14 4 5 9 34 13
34 5z m4456 -21 c-19 -14 -36 -12 -36 6 0 5 12 9 28 9 26 -1 26 -1 8 -15z
m-3606 -130 c0 -52 -4 -95 -9 -95 -5 0 -7 17 -6 38 2 20 4 63 4 95 1 31 3 57
6 57 3 0 5 -43 5 -95z m3620 70 c0 -28 -15 -34 -24 -9 -10 25 -7 34 9 34 9 0
15 -9 15 -25z m-494 -10 c3 -13 4 -30 1 -37 -3 -7 -6 -1 -6 15 -1 15 -6 27
-11 27 -10 0 -3 -299 7 -310 3 -3 4 47 3 110 -2 157 3 162 10 10 l6 -125 2
128 c2 112 4 128 18 125 15 -3 16 -70 19 -723 1 -396 0 -682 -1 -635 -2 47 -8
141 -14 210 -5 69 -10 293 -11 498 -1 205 -5 375 -10 378 -5 3 -9 -215 -9
-517 0 -287 -3 -520 -6 -516 -3 3 -5 241 -5 529 1 287 0 520 -3 517 -3 -2 -6
-157 -8 -344 -2 -187 -5 -389 -9 -450 l-5 -110 -2 105 c-22 1057 -22 1115 -5
1128 24 17 32 15 39 -13z m-3079 -1 c-3 -3 -12 -4 -19 -1 -8 3 -5 6 6 6 11 1
17 -2 13 -5z m3160 -41 c-3 -10 -5 -2 -5 17 0 19 2 27 5 18 2 -10 2 -26 0 -35z
m-150 -240 c-1 -54 -3 -12 -3 92 0 105 2 149 3 98 2 -51 2 -136 0 -190z m103
251 c0 -8 -5 -12 -10 -9 -6 4 -8 11 -5 16 9 14 15 11 15 -7z m777 -46 c-3 -8
-6 -5 -6 6 -1 11 2 17 5 13 3 -3 4 -12 1 -19z m-4434 -9 c17 2 18 -6 16 -133
-2 -75 -6 -136 -9 -136 -6 0 -4 -96 4 -115 3 -9 -1 -15 -9 -15 -13 0 -15 28
-15 185 1 132 4 183 12 179 7 -4 8 -2 4 4 -10 17 -26 15 -26 -3 0 -8 -4 -15
-10 -15 -5 0 -10 14 -10 31 0 22 4 28 13 22 6 -4 20 -6 30 -4z m-53 -129 c0
-107 -2 -128 -14 -124 -21 8 -22 254 -1 254 12 0 15 -22 15 -130z m608 18 c-3
-42 -3 -43 -17 -18 -10 17 -11 25 -2 28 6 2 12 27 13 55 1 43 2 46 5 15 2 -21
3 -57 1 -80z m3752 92 c0 -5 -2 -10 -4 -10 -3 0 -8 5 -11 10 -3 6 -1 10 4 10
6 0 11 -4 11 -10z m-190 -71 c0 -5 -7 -9 -15 -9 -8 0 -15 7 -15 15 0 9 6 12
15 9 8 -4 15 -10 15 -15z m170 -7 c0 -8 -6 -12 -15 -8 -8 3 -15 1 -15 -4 0
-15 -54 -12 -91 5 l-34 15 36 -6 c23 -3 39 -1 44 5 10 17 75 10 75 -7z m37
-144 c-2 -15 1 -29 6 -31 27 -9 52 -376 27 -392 -6 -4 -8 -10 -6 -14 3 -4 1
-13 -5 -21 -5 -10 -9 35 -9 122 0 128 -1 137 -20 143 -19 6 -20 15 -20 130 0
68 -3 130 -6 139 -3 9 -17 16 -30 16 -13 0 -24 5 -24 11 0 7 10 9 26 5 17 -5
23 -3 19 4 -3 5 -1 10 4 10 6 0 11 8 12 18 0 9 7 -12 15 -48 8 -36 13 -77 11
-92z m-208 -269 c1 -385 0 -402 -19 -429 -17 -23 -18 -33 -10 -56 6 -15 9 -33
6 -40 -3 -8 -1 -16 3 -19 5 -2 11 8 13 25 2 16 1 27 -4 24 -4 -3 -8 0 -8 6 0
7 6 10 13 7 6 -2 11 -10 10 -16 -2 -6 4 -11 12 -11 10 0 15 10 15 28 0 15 5
33 12 40 9 9 9 12 0 12 -9 0 -12 93 -12 390 0 282 3 390 11 390 8 0 7 5 -1 15
-17 21 -9 26 28 19 l32 -6 1 -417 c1 -229 1 -452 0 -496 0 -44 -1 -102 -1
-129 0 -27 -3 -46 -7 -43 -3 4 -17 0 -30 -8 -24 -16 -32 -8 -11 13 9 9 8 12
-6 12 -12 0 -16 5 -12 16 3 8 2 13 -2 11 -7 -4 -43 29 -41 38 0 3 -2 11 -4 18
-3 6 -6 2 -6 -10 -1 -25 -26 -31 -34 -9 -4 10 -1 13 7 10 16 -6 9 57 -8 69 -8
6 -7 10 2 14 6 2 9 10 5 16 -3 6 -7 93 -7 194 l-1 183 25 1 c23 1 22 2 -5 8
-28 6 -29 7 -10 19 11 6 14 12 7 12 -9 0 -12 13 -10 39 1 22 -4 46 -10 54 -15
18 -3 31 15 16 10 -9 13 -6 14 17 0 16 2 37 4 47 2 9 -1 17 -6 17 -6 0 -8 4
-5 8 3 5 6 74 7 155 2 112 5 147 15 147 10 0 13 -81 13 -401z m-3653 347 c18
5 24 2 24 -10 0 -10 9 -16 24 -16 14 0 28 -5 32 -12 5 -8 -5 -10 -37 -6 -24 3
-38 4 -31 1 6 -3 12 -12 12 -21 0 -11 -3 -13 -8 -6 -4 6 -15 13 -24 17 -13 5
-18 -1 -21 -26 -2 -18 -4 -3 -5 33 0 36 2 59 5 53 3 -8 14 -11 29 -7z m71 8
c-3 -3 -12 -4 -19 -1 -8 3 -5 6 6 6 11 1 17 -2 13 -5z m3540 -116 c-2 -18 -4
-4 -4 32 0 36 2 50 4 33 2 -18 2 -48 0 -65z m-2569 35 c-10 -2 -28 -2 -40 0
-13 2 -5 4 17 4 22 1 32 -1 23 -4z m140 0 c-10 -2 -28 -2 -40 0 -13 2 -5 4 17
4 22 1 32 -1 23 -4z m1030 0 c-27 -2 -69 -2 -95 0 -27 2 -5 3 47 3 52 0 74 -1
48 -3z m360 -18 c29 -9 52 -19 49 -21 -5 -5 -127 36 -127 43 0 3 6 3 13 1 6
-3 36 -13 65 -23z m-1530 0 c6 -5 -59 -85 -77 -95 -32 -16 -212 -51 -234 -44
-18 6 -17 8 9 35 33 35 97 67 179 90 33 10 53 18 44 18 -9 1 -38 -6 -64 -14
-27 -8 -51 -12 -53 -10 -12 11 98 33 143 28 28 -3 51 -7 53 -8z m248 -6 c62
-30 84 -70 84 -157 0 -164 -86 -314 -232 -405 -15 -9 -31 -17 -35 -17 -4 0 12
13 37 29 127 79 220 246 220 393 0 94 -34 142 -117 164 -30 8 -39 13 -24 13
14 1 44 -8 67 -20z m1080 0 c82 -31 140 -87 153 -150 6 -28 10 -64 10 -82 -1
-18 -5 -5 -11 32 -5 35 -15 76 -24 92 -27 53 -121 107 -214 122 -25 4 -25 4 2
6 15 0 53 -9 84 -20z m-2326 -7 c0 -12 -3 -12 -15 -2 -13 11 -15 7 -15 -23 0
-23 6 -40 18 -47 16 -11 16 -11 0 -6 -10 3 -18 1 -18 -4 0 -6 7 -10 15 -10 8
0 15 -4 15 -10 0 -5 -7 -7 -15 -4 -8 4 -15 1 -15 -5 0 -6 8 -12 18 -12 16 -1
16 -2 0 -6 -15 -4 -17 -16 -17 -81 2 -181 -1 -375 -7 -370 -10 11 -10 588 1
591 21 7 35 3 35 -11z m595 8 c-11 -5 -27 -9 -35 -9 -9 0 -8 4 5 9 11 5 27 9
35 9 9 0 8 -4 -5 -9z m1455 2 c0 -4 -21 -29 -47 -54 -50 -49 -102 -74 -169
-80 -21 -1 -43 -7 -47 -13 -5 -5 -6 6 -3 25 7 38 37 74 78 96 43 23 47 16 4
-9 -21 -12 -46 -33 -55 -47 -12 -20 -7 -17 26 12 23 20 60 42 83 49 22 7 37
15 31 18 -5 3 15 7 45 8 30 1 54 -1 54 -5z m-2611 -54 c0 -24 -4 -61 -8 -83
-8 -34 -9 -28 -10 43 -1 49 3 82 9 82 6 0 10 -19 9 -42z m1087 27 c-8 -9 -18
-32 -21 -53 -10 -58 -16 -62 -10 -8 5 48 18 76 37 76 5 0 3 -7 -6 -15z m-596
-6 c0 -5 -8 -9 -17 -8 -33 3 -43 -1 -43 -16 0 -22 -37 -18 -43 4 -5 22 7 28
66 30 20 0 37 -4 37 -10z m820 -15 c-25 -14 -61 -40 -80 -57 -33 -30 -33 -30
-10 -3 27 31 107 86 124 86 6 0 -9 -12 -34 -26z m-931 -254 c0 -98 -4 -172 -9
-175 -6 -4 -10 79 -9 222 1 151 4 210 9 175 4 -29 8 -129 9 -222z m1829 243
c23 -17 62 -108 50 -118 -2 -1 -65 -5 -142 -8 l-139 -5 7 46 c7 53 28 89 59
102 37 16 134 6 165 -17z m959 -5 c-3 -8 -6 -5 -6 6 -1 11 2 17 5 13 3 -3 4
-12 1 -19z m-2737 -77 c0 -41 -5 -65 -16 -75 -8 -9 -11 -16 -5 -16 6 0 11 -7
11 -15 0 -8 -7 -15 -15 -15 -12 0 -15 16 -15 84 0 72 3 85 18 89 9 3 18 5 20
6 1 0 2 -26 2 -58z m17 -3 c-2 -13 -4 -5 -4 17 -1 22 1 32 4 23 2 -10 2 -28 0
-40z m2730 -10 c-2 -13 -4 -3 -4 22 0 25 2 35 4 23 2 -13 2 -33 0 -45z m-2947
-5 c11 -17 25 -23 52 -23 65 0 68 -4 68 -90 0 -60 -3 -79 -15 -84 -8 -3 -15
-15 -15 -27 0 -20 -3 -21 -42 -15 -24 4 -55 7 -69 7 l-27 -1 4 87 c7 127 16
200 23 183 3 -8 13 -25 21 -37z m3293 40 c-7 -2 -19 -2 -25 0 -7 3 -2 5 12 5
14 0 19 -2 13 -5z m65 -155 c-3 -137 -5 -163 -18 -163 -13 0 -15 24 -17 145
-1 80 2 136 6 125 7 -17 8 -17 15 8 3 16 4 32 1 37 -4 6 -1 10 5 10 7 0 10
-51 8 -162z m-288 132 c0 -5 -4 -10 -10 -10 -5 0 -10 5 -10 10 0 6 5 10 10 10
6 0 10 -4 10 -10z m-2107 -15 c-3 -9 -8 -14 -10 -11 -3 3 -2 9 2 15 9 16 15
13 8 -4z m-1130 -11 c8 -8 -3 -34 -14 -34 -5 0 -9 9 -9 20 0 19 11 26 23 14z
m2274 -16 c-3 -8 -6 -5 -6 6 -1 11 2 17 5 13 3 -3 4 -12 1 -19z m-2479 -22 c3
-15 -1 -18 -22 -14 -14 3 -26 1 -26 -3 0 -5 13 -9 29 -9 l29 0 -1 -115 c-1
-63 -5 -115 -10 -115 -4 0 -6 -4 -3 -9 3 -5 -2 -23 -10 -41 -12 -24 -19 -29
-25 -19 -7 11 -9 10 -9 -3 0 -10 -3 -18 -7 -18 -12 0 -3 155 9 159 6 2 5 7 -3
12 -12 8 -11 11 1 19 10 6 11 10 3 10 -7 0 -13 11 -13 25 0 14 6 25 13 25 9 0
9 2 0 8 -17 11 -19 62 -4 90 14 27 44 26 49 -2z m1319 -73 c-2 -21 -4 -6 -4
32 0 39 2 55 4 38 2 -18 2 -50 0 -70z m198 87 c-6 -10 -100 -41 -119 -39 -8 0
97 42 122 48 2 1 0 -3 -3 -9z m2662 -3 c3 -4 -9 -8 -28 -8 l-34 -1 30 -8 30
-8 -30 -2 c-30 -2 -30 -2 -5 -10 l25 -8 -25 -1 c-20 -1 -22 -3 -10 -11 13 -8
12 -10 -2 -10 -10 0 -18 5 -18 10 0 6 -12 11 -27 11 l-28 1 30 8 c21 5 24 8
10 10 l-20 1 20 9 20 9 -20 1 c-17 1 -18 2 -3 8 21 9 76 8 85 -1z m338 -8
c-10 -15 -25 -10 -19 6 4 8 10 12 15 9 5 -3 7 -10 4 -15z m-1985 -170 c12 -25
14 -36 5 -25 -23 30 -55 123 -54 159 0 23 4 15 14 -29 7 -34 23 -81 35 -105z
m910 135 c0 -2 -9 0 -20 6 -11 6 -20 13 -20 16 0 2 9 0 20 -6 11 -6 20 -13 20
-16z m1069 -86 c0 -66 -4 -94 -9 -77 -4 14 -6 59 -4 100 3 84 2 79 9 79 3 0 5
-46 4 -102z m-4582 10 c-4 -40 -7 -83 -7 -95 0 -13 -4 -23 -10 -23 -12 0 -13
41 -4 129 10 88 28 78 21 -11z m641 -18 c-2 -47 -6 -60 -19 -60 -12 0 -16 13
-18 60 -2 55 0 60 19 60 20 0 21 -5 18 -60z m3617 50 c-4 -6 -11 -8 -16 -5 -5
4 -9 1 -9 -4 0 -6 -6 -11 -14 -11 -8 0 -18 -5 -22 -12 -5 -8 0 -9 14 -6 12 4
22 2 22 -2 0 -5 8 -11 18 -13 9 -3 -5 -5 -32 -6 -38 -1 -47 2 -43 13 3 8 -1
20 -9 27 -12 10 -12 14 -2 20 19 13 101 11 93 -1z m-1025 -122 c-15 -50 -32
-82 -63 -115 -37 -40 -103 -84 -124 -83 -4 1 10 10 32 22 22 11 53 32 69 47
39 35 83 131 93 200 5 40 9 48 11 28 2 -16 -6 -60 -18 -99z m-3392 86 c12 -4
22 -13 22 -20 0 -8 5 -14 10 -14 6 0 10 -4 10 -10 0 -15 -25 -12 -64 6 -27 13
-32 20 -23 30 14 15 15 16 45 8z m1559 -46 c-3 -7 -5 -2 -5 12 0 14 2 19 5 13
2 -7 2 -19 0 -25z m2814 0 c0 -10 2 -10 6 0 2 6 9 12 14 12 6 0 8 -4 5 -9 -4
-5 0 -12 6 -14 7 -3 0 -6 -17 -7 -30 -2 -30 -2 -5 -10 23 -7 22 -8 -11 -9 -28
-1 -38 3 -42 18 -3 15 0 18 17 14 17 -4 18 -3 6 6 -13 9 -13 11 3 11 9 0 17
-6 18 -12z m-3653 -73 c2 -41 -1 -65 -7 -65 -7 0 -11 26 -11 65 0 36 3 65 8
65 4 0 9 -29 10 -65z m-210 37 c2 -7 -7 -17 -20 -22 -23 -10 -23 -11 0 -6 16
3 22 -1 22 -14 0 -10 -8 -21 -17 -23 -10 -3 -3 -5 15 -6 30 -1 32 -3 21 -22
-8 -15 -8 -19 0 -15 7 5 11 -5 11 -28 0 -20 5 -36 10 -36 6 0 10 -19 10 -41 0
-36 -2 -41 -20 -36 -11 3 -20 1 -20 -4 0 -5 -10 -9 -22 -8 -22 0 -22 1 -3 9
19 8 19 9 -2 9 -13 1 -23 -4 -23 -10 0 -6 -9 -8 -21 -4 -16 5 -19 4 -14 -5 6
-9 25 -11 66 -6 l59 6 0 -115 c0 -63 -3 -114 -7 -113 -5 1 -18 -4 -31 -11 -20
-11 -26 -10 -38 6 -22 29 -17 42 14 38 31 -4 66 13 44 22 -6 2 -10 8 -7 13 3
4 -8 16 -23 25 -15 10 -21 12 -14 4 19 -20 15 -49 -7 -49 -10 0 -21 6 -24 14
-7 18 20 56 39 56 8 0 14 5 14 11 0 5 -4 8 -9 4 -5 -3 -15 1 -23 8 -7 7 -21
16 -31 20 -10 4 -16 11 -12 17 3 5 -3 17 -15 27 -13 12 -20 30 -20 55 0 34 3
38 28 39 l27 2 -27 4 c-26 4 -28 7 -28 54 0 31 4 48 10 44 6 -3 10 -1 10 4 0
6 -4 11 -10 11 -5 0 -7 7 -3 16 3 9 6 25 7 37 1 30 74 47 84 19z m1071 -27 c0
-5 -4 -3 -9 5 -5 8 -9 22 -9 30 0 16 17 -16 18 -35z m-803 0 c1 -8 -1 -17 -5
-19 -4 -3 -8 7 -9 21 -2 27 10 25 14 -2z m-86 -29 c0 -36 -4 -46 -20 -51 -31
-10 -40 2 -40 51 0 42 1 44 30 44 29 0 30 -2 30 -44z m3706 25 c-4 -5 0 -12 6
-14 7 -3 3 -6 -10 -6 -13 -1 -21 3 -17 8 3 5 -5 12 -17 14 -17 3 -14 5 10 6
18 0 31 -3 28 -8z m338 -128 c-3 -71 -8 -130 -10 -132 -16 -17 -21 87 -10 173
5 35 3 52 -6 58 -10 6 -10 10 2 18 8 5 19 10 23 10 5 0 5 -57 1 -127z m-3047
-3 c26 -17 42 -30 36 -30 -32 0 -143 111 -143 144 0 6 13 -11 30 -37 17 -27
50 -60 77 -77z m2668 110 c-3 -5 4 -10 17 -11 23 -1 23 -1 -2 -9 -24 -8 -24
-8 -2 -10 12 -1 27 -3 32 -4 6 0 10 -5 9 -11 -1 -5 -5 -9 -10 -7 -5 1 -9 -11
-9 -28 0 -16 5 -30 10 -30 6 0 10 -5 10 -10 0 -6 -24 -10 -60 -8 -33 1 -60 5
-60 8 0 10 59 32 70 25 5 -3 10 -4 10 -1 0 2 3 13 6 23 5 14 4 15 -4 4 -11
-16 -47 -7 -37 9 3 5 -4 11 -17 11 l-23 2 23 4 c26 5 30 22 5 24 -17 1 -17 2
0 6 9 2 17 9 17 14 0 5 5 9 11 9 5 0 7 -4 4 -10z m-3548 -22 c-3 -8 -6 -5 -6
6 -1 11 2 17 5 13 3 -3 4 -12 1 -19z m2133 -92 c25 -14 40 -26 34 -26 -20 0
-99 58 -139 101 l-40 44 50 -47 c28 -26 70 -58 95 -72z m-2790 59 c0 -19 -4
-35 -10 -35 -11 0 -13 30 -4 54 10 25 14 19 14 -19z m436 -20 c-1 -59 -16 -59
-16 0 0 25 4 45 8 45 5 0 8 -20 8 -45z m3391 -17 c-2 -13 -4 -5 -4 17 -1 22 1
32 4 23 2 -10 2 -28 0 -40z m803 -19 c0 -39 -4 -68 -9 -65 -10 6 -14 113 -5
128 11 18 14 5 14 -63z m-4050 27 c0 -2 -7 -9 -15 -16 -12 -10 -15 -10 -15 4
0 9 7 16 15 16 8 0 15 -2 15 -4z m3227 -28 c-3 -8 -6 -5 -6 6 -1 11 2 17 5 13
3 -3 4 -12 1 -19z m20 -45 c-3 -10 -5 -4 -5 12 0 17 2 24 5 18 2 -7 2 -21 0
-30z m-3247 7 c0 -11 -4 -20 -10 -20 -5 0 -10 9 -10 20 0 11 5 20 10 20 6 0
10 -9 10 -20z m1240 10 c-8 -5 -22 -9 -30 -9 -10 0 -8 3 5 9 27 12 43 12 25 0z
m1987 -22 c-3 -7 -5 -2 -5 12 0 14 2 19 5 13 2 -7 2 -19 0 -25z m-3723 -35
c-8 -80 -13 -93 -25 -70 -6 9 -17 17 -24 17 -8 0 -15 -8 -16 -17 0 -14 -3 -12
-10 5 -5 13 -16 30 -24 38 -8 9 -15 30 -14 47 0 30 1 31 11 10 9 -18 18 -22
42 -19 17 2 37 4 44 5 9 1 11 8 7 21 -4 12 -2 20 4 20 8 0 9 -19 5 -57z m4131
47 c-3 -5 -1 -10 4 -10 6 0 11 5 11 10 0 6 6 5 14 -2 12 -11 10 -14 -13 -19
-25 -6 -24 -7 7 -8 29 -1 40 -16 20 -31 -3 -3 -9 -19 -12 -35 -5 -24 -4 -26 3
-10 8 17 10 15 10 -13 1 -20 -3 -31 -9 -27 -5 3 -10 1 -10 -4 0 -6 -9 -11 -20
-11 -16 0 -20 7 -20 35 0 19 -4 35 -8 35 -5 0 -8 -10 -7 -22 3 -32 -5 -48 -22
-48 -11 0 -14 13 -12 56 2 54 17 84 42 84 7 0 3 7 -7 15 -19 14 -19 15 8 15
15 0 25 -4 21 -10z m-2537 -7 c-10 -2 -28 -2 -40 0 -13 2 -5 4 17 4 22 1 32
-1 23 -4z m80 0 c-10 -2 -26 -2 -35 0 -10 3 -2 5 17 5 19 0 27 -2 18 -5z
m1145 0 c-7 -2 -19 -2 -25 0 -7 3 -2 5 12 5 14 0 19 -2 13 -5z m130 0 c-7 -2
-19 -2 -25 0 -7 3 -2 5 12 5 14 0 19 -2 13 -5z m-2286 -65 c-2 -13 -4 -3 -4
22 0 25 2 35 4 23 2 -13 2 -33 0 -45z m2231 55 c-10 -2 -28 -2 -40 0 -13 2 -5
4 17 4 22 1 32 -1 23 -4z m1332 -80 c-7 -23 -8 -18 -8 27 0 45 1 50 8 28 5
-16 5 -40 0 -55z m-3730 43 c0 -3 -4 -8 -10 -11 -5 -3 -10 -1 -10 4 0 6 5 11
10 11 6 0 10 -2 10 -4z m1098 -13 c-10 -2 -26 -2 -35 0 -10 3 -2 5 17 5 19 0
27 -2 18 -5z m69 1 c-3 -3 -12 -4 -19 -1 -8 3 -5 6 6 6 11 1 17 -2 13 -5z
m2310 -36 c-3 -7 -5 -2 -5 12 0 14 2 19 5 13 2 -7 2 -19 0 -25z m-3486 -1
c-10 -9 -11 -8 -5 6 3 10 9 15 12 12 3 -3 0 -11 -7 -18z m3446 -54 c-2 -16 -4
-3 -4 27 0 30 2 43 4 28 2 -16 2 -40 0 -55z m-3049 25 c2 -22 -3 -39 -12 -48
-14 -11 -16 -6 -16 40 0 60 23 67 28 8z m3655 2 c-7 -25 -23 -37 -23 -16 0 23
11 46 20 41 5 -3 6 -14 3 -25z m-4623 -74 c0 -90 -6 -82 -14 19 -5 56 -4 76 3
65 6 -8 11 -46 11 -84z m47 74 c-5 -19 3 -24 40 -23 6 0 14 -9 17 -22 5 -18
11 -21 36 -17 38 5 38 -2 0 -22 -17 -8 -28 -10 -25 -5 3 5 -1 6 -9 3 -23 -9
-23 -114 0 -114 12 0 14 -3 6 -13 -14 -16 -10 -111 5 -129 7 -8 8 -19 3 -28
-11 -18 -3 -31 15 -23 20 7 19 -2 -2 -23 -16 -16 -16 -16 6 -9 21 6 23 5 19
-19 -3 -15 0 -31 8 -37 17 -14 18 -32 2 -26 -7 2 -12 10 -10 16 2 12 -8 14
-32 5 -21 -8 -20 -20 4 -46 30 -32 26 -55 -10 -60 -32 -5 -60 14 -40 27 5 3
15 3 22 -1 7 -4 8 -3 4 4 -4 7 -1 12 6 12 7 0 -1 10 -19 21 -36 23 -38 27 -53
123 -6 38 -14 76 -18 85 -4 9 -7 38 -6 65 1 38 6 52 20 58 16 7 15 8 -4 4 -20
-4 -22 -1 -16 17 4 12 11 24 15 25 14 6 11 22 -3 20 -19 -4 -22 56 -7 108 13
43 37 65 26 24z m700 -47 c-2 -16 -4 -5 -4 22 0 28 2 40 4 28 2 -13 2 -35 0
-50z m-474 27 c3 -11 1 -23 -4 -26 -5 -3 -9 -1 -9 5 0 5 -3 16 -6 25 -3 9 -2
16 4 16 5 0 12 -9 15 -20z m365 -8 c2 -8 -5 -11 -19 -9 -13 2 -25 9 -27 15 -2
8 5 11 19 9 13 -2 25 -9 27 -15z m42 -27 c0 -2 -7 -5 -15 -9 -9 -3 -15 0 -15
9 0 9 6 12 15 9 8 -4 15 -7 15 -9z m317 -5 c-3 -12 1 -24 11 -29 14 -8 14 -13
4 -36 -16 -34 -15 -40 3 -25 23 19 27 7 12 -38 l-14 -41 26 2 c22 2 26 -2 23
-23 -1 -14 -2 -36 -2 -49 0 -13 -11 -39 -25 -57 -20 -25 -22 -32 -9 -27 13 5
16 3 11 -10 -3 -9 -3 -16 1 -14 4 1 8 -2 9 -7 1 -5 7 -12 14 -16 9 -6 7 -15
-10 -35 -11 -15 -21 -38 -21 -51 0 -16 -10 -28 -30 -39 -31 -16 -42 -32 -15
-21 26 10 16 -13 -12 -29 -16 -9 -20 -14 -10 -11 9 3 17 1 17 -4 0 -6 5 -9 11
-8 6 2 13 -3 14 -10 2 -7 1 -8 -2 -2 -7 15 -23 2 -17 -15 3 -7 1 -22 -4 -32
-12 -21 -62 -29 -63 -10 0 6 -2 19 -4 28 -1 8 4 31 13 50 18 40 19 44 21 65 0
9 6 12 13 8 6 -4 8 -3 5 3 -3 5 8 17 24 27 17 10 28 20 25 23 -2 3 -20 -6 -38
-20 -23 -18 -41 -46 -59 -94 -48 -124 -49 -115 17 -112 50 2 58 0 65 -18 8
-23 -16 -42 -25 -20 -2 7 -5 1 -5 -12 -1 -19 2 -22 10 -14 6 6 18 9 25 6 16
-6 19 -33 4 -33 -6 0 -10 -8 -8 -17 2 -10 -3 -17 -9 -15 -7 1 -13 -2 -13 -8 0
-5 16 -10 37 -10 20 0 33 -3 29 -7 -4 -5 -11 -8 -14 -7 -4 0 -13 -6 -21 -13
-7 -8 -20 -12 -27 -9 -10 4 -14 -5 -15 -37 -1 -23 -1 -50 0 -59 1 -10 -3 -18
-8 -18 -6 0 -11 9 -11 20 0 11 -7 20 -15 20 -18 0 -20 -16 -2 -23 6 -3 -1 -5
-18 -5 -16 0 -24 2 -17 5 6 2 10 8 7 12 -4 7 -17 120 -18 159 0 6 -4 12 -9 12
-4 0 -9 33 -9 73 -1 39 -4 59 -6 44 -3 -16 -10 -30 -17 -33 -8 -3 -11 -16 -8
-35 4 -30 -14 -79 -30 -79 -11 0 -10 37 3 63 l10 22 -19 -22 c-11 -12 -23 -19
-28 -15 -5 4 -3 -1 5 -10 7 -9 11 -29 9 -43 -3 -25 -7 -27 -53 -31 -45 -3 -51
-1 -52 16 -2 17 1 19 19 9 21 -12 21 -12 0 16 -12 15 -22 36 -22 47 0 11 -4
16 -10 13 -5 -3 -10 -22 -10 -41 0 -19 -4 -34 -9 -34 -4 0 -8 -33 -7 -74 1
-74 1 -75 30 -80 22 -5 27 -9 18 -18 -8 -8 -18 -8 -41 1 -16 7 -37 11 -46 9
-14 -3 -14 -6 5 -26 12 -12 25 -20 30 -17 4 3 10 -2 14 -10 8 -21 -39 -31 -61
-14 -12 10 -15 10 -9 2 14 -25 -39 -13 -69 14 -25 24 -27 28 -11 31 10 2 23
-2 30 -9 8 -9 8 -10 -3 -4 -9 5 -12 4 -7 -3 7 -12 46 -12 46 0 0 4 -12 15 -26
25 -90 63 -108 80 -111 104 -4 28 28 66 46 54 15 -9 14 -32 -1 -39 -7 -4 -3
-4 9 -2 13 2 26 0 29 -5 3 -5 10 -9 15 -9 6 0 7 4 4 10 -3 5 10 3 28 -5 l34
-14 -2 48 c-3 56 -28 113 -38 88 -3 -9 0 -21 8 -27 11 -9 11 -17 3 -35 -9 -21
-14 -23 -32 -13 -12 6 -35 24 -52 40 l-31 29 4 -28 c3 -20 -2 -34 -16 -47 -12
-11 -21 -25 -21 -31 0 -7 -9 -15 -20 -18 -11 -3 -18 -2 -15 3 7 11 -20 20 -44
13 -12 -3 -21 -12 -21 -20 0 -21 -11 -14 -68 39 -70 66 -96 105 -97 149 -1 27
2 35 10 29 6 -5 21 -7 34 -3 15 4 28 -1 43 -16 11 -12 23 -19 26 -16 4 4 -8
19 -26 34 l-34 27 20 24 c17 21 22 23 36 11 14 -12 19 -11 31 5 8 10 15 25 15
32 0 6 5 12 12 12 6 0 8 3 4 7 -4 5 -14 -1 -22 -12 -15 -20 -15 -20 -30 0 -8
11 -13 26 -11 35 3 16 9 16 97 3 53 -8 55 -9 58 -41 3 -27 7 -33 21 -29 11 2
18 -1 18 -9 0 -8 -4 -14 -9 -14 -4 0 -7 -5 -5 -12 3 -17 -40 -36 -69 -30 -33
6 -42 31 -18 50 12 9 13 13 4 10 -17 -5 -36 -40 -44 -83 -6 -28 -6 -28 5 -7 7
12 18 22 26 22 16 0 16 -5 2 -32 -10 -18 -9 -20 5 -15 13 5 15 2 10 -17 -4
-16 1 -31 12 -45 29 -33 34 -27 34 39 0 32 12 51 36 54 10 2 18 9 17 15 -2 6
2 11 7 11 6 0 19 9 31 21 l21 21 -27 28 c-25 26 -26 29 -11 47 53 60 76 93 76
107 0 9 8 19 18 22 9 3 31 11 47 19 17 8 49 17 73 20 l42 7 0 50 c0 46 2 49
23 46 19 -3 22 -9 23 -50 0 -37 -3 -48 -15 -49 -9 0 -4 -4 11 -9 15 -4 42 -17
60 -28 l33 -20 23 29 c16 19 19 29 10 29 -8 0 -9 3 -2 8 17 11 24 40 11 45 -8
2 -6 11 6 30 9 14 13 28 8 31 -10 7 -6 73 8 109 7 18 7 26 1 22 -6 -3 -10 -2
-10 4 0 5 5 13 10 16 6 3 10 15 10 26 0 10 4 19 8 19 4 0 8 10 9 22 1 11 8 25
15 29 19 13 21 11 15 -11z m3183 10 c0 -5 -4 -10 -9 -10 -6 0 -13 5 -16 10 -3
6 1 10 9 10 9 0 16 -4 16 -10z m58 -15 c-6 -14 -17 -25 -25 -25 -7 0 -13 11
-13 25 0 20 5 25 25 25 23 0 24 -2 13 -25z m69 -12 c-3 -10 -5 -4 -5 12 0 17
2 24 5 18 2 -7 2 -21 0 -30z m-3722 17 c3 -5 1 -10 -4 -10 -6 0 -11 5 -11 10
0 6 2 10 4 10 3 0 8 -4 11 -10z m242 -112 c-2 -24 -4 -5 -4 42 0 47 2 66 4 43
2 -24 2 -62 0 -85z m3693 112 c0 -5 -4 -10 -10 -10 -5 0 -10 5 -10 10 0 6 5
10 10 10 6 0 10 -4 10 -10z m-4221 -22 c11 -28 10 -29 -17 -21 -13 3 -22 13
-22 24 0 26 29 24 39 -3z m1852 5 c12 -15 12 -16 -4 -10 -10 4 -25 7 -33 7 -9
0 -12 5 -9 10 9 15 31 12 46 -7z m2109 7 c0 -5 -5 -10 -11 -10 -5 0 -7 5 -4
10 3 6 8 10 11 10 2 0 4 -4 4 -10z m-4013 -25 c0 -11 -4 -12 -14 -4 -7 6 -13
15 -13 20 0 5 6 6 13 3 8 -3 14 -11 14 -19z m380 -7 c-3 -7 -5 -2 -5 12 0 14
2 19 5 13 2 -7 2 -19 0 -25z m1458 3 c-3 -6 -11 -11 -17 -11 -6 0 -6 6 2 15
14 17 26 13 15 -4z m2092 13 c-3 -3 -12 -4 -19 -1 -8 3 -5 6 6 6 11 1 17 -2
13 -5z m-1684 -24 c-29 -4 -65 -11 -80 -15 -16 -4 -25 -3 -21 0 11 11 69 23
113 23 36 0 35 -1 -12 -8z m1645 -46 c9 -6 13 -18 9 -28 -4 -9 -2 -16 3 -16 6
0 5 -9 -2 -20 -11 -18 -14 -18 -28 -4 -11 11 -12 17 -3 22 9 6 7 12 -7 22 -12
8 -20 26 -20 41 0 32 23 45 28 15 2 -11 11 -25 20 -32z m169 4 c-2 -13 -4 -5
-4 17 -1 22 1 32 4 23 2 -10 2 -28 0 -40z m353 41 c0 -6 -5 -19 -11 -30 -8
-16 -13 -18 -24 -9 -18 15 -8 41 12 33 11 -4 14 -2 9 5 -4 7 -2 12 3 12 6 0
11 -5 11 -11z m-4360 -14 c6 4 10 -4 10 -19 0 -14 0 -29 1 -33 0 -5 -12 -8
-28 -8 -16 0 -28 5 -27 13 1 6 2 24 3 38 1 22 3 24 16 14 8 -6 19 -9 25 -5z
m1447 -1 c-3 -3 -12 -4 -19 -1 -8 3 -5 6 6 6 11 1 17 -2 13 -5z m2469 -21
c-10 -10 -19 5 -10 18 6 11 8 11 12 0 2 -7 1 -15 -2 -18z m363 -10 c-2 -16 -7
-33 -11 -39 -5 -6 -14 -31 -22 -55 -7 -24 -17 -53 -22 -64 -8 -19 -8 -19 12 0
11 11 21 32 22 48 3 46 28 75 65 73 28 -2 32 -5 29 -26 -2 -14 -9 -29 -14 -35
-8 -7 -8 -6 -3 4 5 9 4 12 -3 7 -7 -4 -9 -17 -6 -31 3 -12 1 -26 -5 -30 -6 -3
-8 -11 -5 -17 5 -7 -1 -9 -15 -5 -16 4 -21 2 -17 -8 3 -8 0 -15 -6 -17 -6 -2
-3 -9 6 -17 10 -9 16 -9 16 -2 0 14 50 -6 68 -28 22 -27 13 -101 -14 -101 -23
0 -53 -37 -49 -60 2 -11 0 -21 -6 -21 -5 -1 -14 -2 -21 -3 -7 0 -15 -11 -18
-24 -3 -13 -9 -23 -15 -24 -5 0 -21 -8 -36 -18 -17 -13 -30 -16 -40 -9 -18 11
-62 12 -55 0 4 -5 -3 -7 -15 -4 -14 4 -19 11 -16 25 4 15 1 18 -15 12 -11 -3
-27 -7 -36 -8 -9 -2 -19 -11 -23 -22 -7 -18 -8 -18 -9 1 -1 19 -2 18 -10 -2
-12 -30 -20 -29 -20 2 0 16 6 25 15 25 8 0 15 5 15 10 0 6 -4 10 -8 10 -13 0
-13 52 -1 98 6 23 16 42 21 42 5 0 6 5 2 12 -4 7 -3 8 4 4 6 -3 15 1 21 11 11
23 12 35 0 49 -5 7 -3 11 6 11 8 0 12 -4 9 -9 -3 -4 -1 -8 4 -8 5 0 12 -13 16
-30 4 -21 11 -30 26 -30 11 0 20 5 20 10 0 6 -9 10 -20 10 -11 0 -20 6 -20 13
0 14 20 47 20 33 0 -5 6 -3 13 3 9 7 24 8 47 1 39 -11 48 -7 31 14 -8 9 -24
13 -44 10 -20 -2 -38 3 -50 14 -19 16 -19 16 -12 -7 5 -17 4 -22 -6 -19 -8 3
-13 12 -11 20 1 8 -8 20 -20 26 l-23 11 23 0 c31 1 31 41 0 41 -27 0 -21 5 15
14 25 6 27 4 27 -25 0 -38 7 -36 12 3 5 37 11 40 43 28 23 -9 26 -8 21 5 -3 8
-1 15 4 15 6 0 10 -5 10 -11 0 -7 9 0 21 15 11 14 17 31 13 38 -4 7 -4 10 1 6
12 -12 35 12 35 36 0 17 2 18 10 6 8 -13 10 -12 10 3 0 9 3 17 6 17 3 0 4 -12
3 -27z m-389 -3 c0 -5 -5 -10 -11 -10 -5 0 -7 5 -4 10 3 6 8 10 11 10 2 0 4
-4 4 -10z m415 -10 c-3 -5 -12 -10 -18 -10 -7 0 -6 4 3 10 19 12 23 12 15 0z
m-4205 -75 c0 -67 -2 -75 -19 -75 -22 0 -41 44 -41 94 0 29 20 49 53 55 4 0 7
-33 7 -74z m3987 55 c-1 -11 -5 -20 -9 -20 -10 0 -10 4 -2 24 8 22 13 20 11
-4z m-2204 -17 c-7 -2 -21 -2 -30 0 -10 3 -4 5 12 5 17 0 24 -2 18 -5z m-2014
-18 c4 2 15 -11 24 -29 15 -32 15 -35 -3 -51 -23 -20 -40 -13 -33 15 4 14 0
20 -11 20 -9 0 -16 -5 -16 -11 0 -5 5 -7 10 -4 6 3 10 1 10 -4 0 -6 -4 -11
-10 -11 -5 0 -13 0 -17 0 -16 0 -6 40 12 54 15 12 16 15 5 16 -13 0 -13 1 0
10 10 6 16 6 18 0 2 -6 7 -8 11 -5z m87 -10 c-3 -14 -2 -25 2 -25 12 1 39 24
40 35 0 5 5 11 11 13 14 5 15 -80 2 -93 -11 -12 -3 -65 10 -65 5 0 9 5 9 11 0
6 7 8 16 5 8 -3 12 -2 9 4 -3 6 3 10 13 10 19 0 20 -8 21 -100 1 -81 -2 -100
-13 -100 -11 0 -15 11 -13 45 1 25 7 45 12 46 6 1 -1 4 -15 8 -14 4 -24 14
-24 24 2 18 -22 31 -31 17 -4 -6 -2 -10 3 -10 6 0 8 -9 5 -20 -3 -12 0 -20 6
-20 7 0 11 -8 10 -17 -1 -10 -1 -25 0 -33 1 -13 2 -13 11 0 8 12 10 9 10 -11
0 -22 -5 -26 -30 -27 -20 0 -30 4 -30 14 0 8 -4 13 -9 9 -15 -9 -25 17 -22 55
4 44 11 56 23 39 5 -9 7 1 3 27 -3 23 -2 59 3 80 12 52 6 67 -18 52 -24 -16
-34 -6 -26 27 8 32 18 33 12 0z m1974 15 c0 -5 -4 -10 -9 -10 -6 0 -13 5 -16
10 -3 6 1 10 9 10 9 0 16 -4 16 -10z m30 -26 c6 -15 7 -32 1 -41 -6 -12 -10
-5 -13 25 -4 49 -1 52 12 16z m120 6 c0 -5 -5 -10 -11 -10 -5 0 -7 5 -4 10 3
6 8 10 11 10 2 0 4 -4 4 -10z m1680 -11 c0 -4 -7 -9 -15 -13 -9 -3 -15 0 -15
8 0 7 7 13 15 13 8 0 15 -4 15 -8z m-43 -15 c-3 -3 -12 -4 -19 -1 -8 3 -5 6 6
6 11 1 17 -2 13 -5z m83 -36 c0 -6 -7 -8 -15 -4 -8 3 -15 1 -15 -4 0 -5 8 -11
18 -13 13 -4 12 -5 -5 -6 -18 -1 -22 4 -21 23 2 17 7 22 20 18 10 -2 18 -9 18
-14z m-62 0 c-5 -13 -38 -20 -38 -8 0 5 8 11 18 13 9 3 19 5 20 6 2 0 2 -4 0
-11z m-304 -7 c7 -11 -43 -33 -56 -25 -7 5 -4 12 7 21 21 15 41 17 49 4z m383
-63 c-2 -13 -4 -3 -4 22 0 25 2 35 4 23 2 -13 2 -33 0 -45z m-3970 46 c-3 -3
-12 -4 -19 -1 -8 3 -5 6 6 6 11 1 17 -2 13 -5z m677 -41 c-8 -65 -14 -67 -14
-5 0 29 5 52 10 52 7 0 8 -18 4 -47z m3273 0 c-3 -3 -11 -2 -17 2 -9 6 -9 10
1 16 14 8 27 -7 16 -18z m-43 10 c-5 -5 -12 -12 -16 -18 -4 -6 -8 -2 -8 8 0 9
7 17 17 17 9 0 12 -3 7 -7z m-2409 -32 c-3 -6 -11 -11 -17 -11 -6 0 -6 6 2 15
14 17 26 13 15 -4z m2415 -21 c0 -5 -15 -9 -32 -9 l-33 1 30 8 c17 4 31 8 33
9 1 0 2 -3 2 -9z m-3818 -75 c-4 -25 -22 -45 -22 -26 0 6 -7 11 -15 11 -8 0
-15 4 -15 10 0 5 7 6 17 3 11 -4 14 -3 9 5 -4 7 -4 22 0 34 6 20 8 20 19 5 7
-9 10 -28 7 -42z m3836 28 c-10 -2 -26 -2 -35 0 -10 3 -2 5 17 5 19 0 27 -2
18 -5z m-97 -51 c-7 -2 -18 1 -23 6 -8 8 -4 9 13 5 13 -4 18 -8 10 -11z m56
-24 c-3 -8 -6 -5 -6 6 -1 11 2 17 5 13 3 -3 4 -12 1 -19z m-1730 6 c-3 -3 -12
-4 -19 -1 -8 3 -5 6 6 6 11 1 17 -2 13 -5z m-1027 -50 c0 -9 -6 -14 -12 -11
-7 2 -23 0 -35 -4 -32 -12 -29 -3 5 15 35 20 42 19 42 0z m2160 10 c0 -9 -58
-32 -64 -27 -8 8 29 30 50 30 8 0 14 -2 14 -3z m589 -78 c-3 -3 -18 -1 -35 3
-28 9 -28 9 -4 10 24 2 24 2 5 14 -11 7 -21 19 -23 27 -2 8 11 1 29 -17 18
-18 31 -35 28 -37z m-2874 25 c-3 -10 -1 -38 4 -62 5 -24 7 -48 3 -53 -4 -6
-5 -20 -4 -31 2 -17 1 -17 -11 4 l-14 24 -11 -32 c-7 -20 -8 -40 -2 -55 8 -23
-3 -46 -23 -46 -9 0 0 207 10 223 2 4 -1 7 -8 7 -8 0 -8 4 1 15 7 8 15 13 19
11 4 -3 13 -1 21 5 21 12 22 11 15 -10z m-938 -27 c3 -9 -67 -47 -84 -44 -13
2 -3 34 15 48 19 15 64 12 69 -4z m-307 -27 c0 -6 -3 -7 -7 -4 -3 4 -11 3 -17
-2 -11 -9 -40 -14 -62 -12 -6 0 -11 8 -11 16 0 8 2 13 4 11 2 -2 16 -1 31 3
32 9 62 3 62 -12z m1174 11 c-5 -7 -9 -21 -9 -31 -1 -10 -8 -23 -15 -30 -10
-10 -11 -6 -5 18 6 28 22 55 32 55 2 0 1 -6 -3 -12z m2766 2 c0 -5 -4 -10 -10
-10 -5 0 -10 5 -10 10 0 6 5 10 10 10 6 0 10 -4 10 -10z m113 3 c-7 -2 -19 -2
-25 0 -7 3 -2 5 12 5 14 0 19 -2 13 -5z m204 -80 c-3 -10 -5 -2 -5 17 0 19 2
27 5 18 2 -10 2 -26 0 -35z m270 41 c-3 -3 -12 -4 -19 -1 -8 3 -5 6 6 6 11 1
17 -2 13 -5z m53 -10 c0 -2 -7 -4 -15 -4 -8 0 -15 4 -15 10 0 5 7 7 15 4 8 -4
15 -8 15 -10z m40 -44 c-6 -12 -14 -19 -17 -17 -2 3 0 14 6 25 6 12 7 23 1 31
-6 6 -3 5 6 -3 13 -11 14 -18 4 -36z m-490 -5 c0 -19 -4 -35 -10 -35 -5 0 -10
16 -10 35 0 19 5 35 10 35 6 0 10 -16 10 -35z m450 25 c0 -5 -4 -10 -10 -10
-5 0 -10 5 -10 10 0 6 5 10 10 10 6 0 10 -4 10 -10z m-2370 -20 c-6 -11 -13
-20 -16 -20 -2 0 0 9 6 20 6 11 13 20 16 20 2 0 0 -9 -6 -20z m-470 -26 c-25
-15 -57 -28 -72 -29 -23 -1 -25 1 -15 16 14 23 51 34 43 13 -4 -11 4 -9 32 5
55 30 64 25 12 -5z m1745 16 c17 -7 25 -15 22 -25 -4 -8 -1 -12 6 -9 16 6 20
-55 6 -73 -9 -10 -5 -13 20 -13 23 0 31 -5 31 -17 0 -15 -2 -16 -10 -3 -8 12
-10 11 -10 -7 0 -13 -4 -23 -10 -23 -5 0 -10 -7 -10 -15 0 -8 -4 -15 -10 -15
-5 0 -10 16 -10 35 0 19 -4 35 -10 35 -5 0 -10 -16 -10 -35 0 -21 -5 -35 -12
-35 -8 0 -13 12 -12 32 2 38 -21 69 -43 61 -12 -5 -12 -7 -1 -14 7 -5 9 -9 3
-9 -8 0 -10 -33 -6 -82 1 -5 8 -8 16 -8 8 0 15 -5 15 -11 0 -6 -8 -8 -18 -5
-15 5 -17 -1 -19 -47 l-1 -52 66 -1 c37 -1 57 1 45 3 -37 7 -26 23 16 23 27 0
43 6 52 20 12 17 31 21 124 29 74 5 93 9 60 11 -27 1 -54 3 -60 5 -5 1 -16 3
-22 3 -27 4 -12 22 17 22 17 0 30 4 30 9 0 13 -70 9 -70 -4 0 -11 -20 16 -20
28 0 4 34 7 76 7 56 0 75 -3 71 -12 -2 -7 -14 -12 -25 -12 -12 1 -22 -3 -22
-7 0 -5 14 -9 30 -9 17 0 30 -5 30 -12 0 -7 5 -5 11 4 9 16 13 14 45 -17 35
-35 60 -46 51 -22 -3 9 5 13 26 12 19 0 32 6 34 15 4 12 3 12 -5 2 -7 -11 -11
-9 -15 9 -11 41 17 56 32 17 6 -15 7 2 3 45 -4 59 -3 67 12 67 10 0 25 7 33
16 12 12 26 14 52 10 53 -10 54 -10 81 -28 14 -8 37 -18 52 -22 77 -18 76 -16
64 -103 -7 -46 -16 -78 -23 -78 -15 0 -19 -5 -27 -37 -5 -21 -3 -28 9 -28 11
0 15 -11 15 -40 0 -22 2 -40 5 -40 2 0 19 9 37 20 57 34 79 27 109 -35 21 -42
24 -57 15 -65 -7 -5 -16 -6 -21 -2 -4 4 -3 -2 3 -14 9 -18 7 -24 -18 -42 -16
-12 -36 -22 -45 -22 -9 0 -35 -10 -58 -21 -23 -12 -39 -18 -34 -14 4 5 -1 17
-10 27 -17 19 -17 21 0 50 21 36 21 48 3 48 -18 0 -13 40 6 52 7 4 8 8 3 8 -6
0 -16 -5 -21 -10 -7 -7 -15 -3 -23 14 -12 21 -16 22 -41 13 -25 -9 -28 -15
-23 -43 4 -26 2 -33 -16 -39 -21 -6 -55 -58 -45 -68 3 -3 -4 -11 -16 -17 -16
-9 -25 -8 -36 1 -13 11 -12 14 7 25 21 11 18 12 -24 9 -37 -3 -49 0 -57 15 -7
13 -5 21 5 30 8 7 15 17 15 23 0 5 8 16 18 24 9 8 11 12 5 8 -8 -4 -13 0 -13
9 0 9 6 16 13 17 10 0 10 2 0 6 -21 8 -15 26 7 20 11 -3 18 -1 15 4 -3 4 5 11
19 15 23 5 23 7 8 23 -10 10 -21 16 -25 14 -4 -3 -15 -2 -25 2 -13 5 -14 8 -3
14 7 5 9 11 4 14 -11 7 -64 -18 -90 -43 -50 -46 -119 -63 -143 -35 -17 20 -7
41 27 57 19 9 29 22 31 41 2 15 -1 27 -7 27 -6 0 -11 -3 -11 -8 0 -4 -9 -13
-20 -19 -15 -10 -18 -10 -14 0 3 9 -4 13 -25 11 -36 -2 -53 -12 -45 -26 3 -5
-2 -8 -12 -7 -11 2 -50 -12 -88 -30 -37 -18 -74 -30 -82 -27 -8 3 -13 2 -11
-2 1 -4 -16 -24 -38 -45 -22 -22 -34 -36 -28 -32 8 4 11 1 7 -9 -7 -19 -68
-48 -73 -35 -1 6 -8 3 -15 -6 -9 -13 -11 -9 -12 22 -4 88 -24 156 -24 79 0
-20 -4 -35 -9 -32 -5 4 -11 2 -13 -4 -2 -6 -13 -12 -26 -15 -17 -3 -22 1 -23
18 0 21 -1 21 -9 2 -7 -16 -9 -12 -8 18 1 20 6 37 11 37 4 0 5 6 0 13 -4 6 -8
30 -9 52 -1 22 -4 53 -8 70 -5 21 -3 33 9 41 10 8 12 14 6 19 -15 9 -14 62 2
68 9 4 8 8 -3 16 -12 8 -7 11 20 11 53 0 61 -10 59 -71 -2 -77 0 -99 9 -99 4
0 6 43 5 95 l-2 95 27 0 c26 0 27 2 24 44 -4 44 -3 45 30 49 18 2 34 5 35 5 1
1 14 -3 28 -8z m540 -18 c0 -7 -3 -12 -7 -12 -5 0 -16 0 -26 0 -11 0 -18 7
-18 19 0 15 5 17 26 11 14 -3 25 -12 25 -18z m533 3 c-6 -14 -15 -25 -20 -25
-11 0 -10 7 4 30 18 29 30 25 16 -5z m-288 -21 c0 -16 -6 -24 -17 -24 -15 0
-16 2 -3 10 13 8 13 11 1 19 -7 5 -10 14 -7 20 11 17 26 3 26 -25z m59 25 c4
6 7 -5 8 -24 1 -24 -3 -35 -13 -35 -10 0 -14 12 -13 38 0 20 3 31 6 23 4 -9 8
-10 12 -2z m-369 -29 c0 -17 5 -30 11 -30 6 0 3 -7 -6 -16 -13 -14 -18 -14
-32 -2 -13 10 -15 10 -9 0 4 -7 1 -23 -8 -37 -15 -23 -15 -23 16 -14 41 11 59
-4 35 -29 -16 -15 -19 -15 -27 -2 -7 10 -10 11 -10 3 0 -7 -9 -13 -20 -13 -18
0 -20 7 -20 83 l0 84 35 1 c32 1 35 -1 35 -28z m-264 -3 c6 -6 -55 -12 -79 -8
-5 1 -6 -3 -2 -9 8 -13 -16 -38 -33 -32 -19 6 -15 50 6 55 26 6 100 3 108 -6z
m-2366 -35 c0 -26 -5 -39 -14 -39 -10 0 -11 8 -3 39 5 21 11 38 13 38 2 0 4
-17 4 -38z m2520 23 c0 -8 -7 -15 -15 -15 -16 0 -20 12 -8 23 11 12 23 8 23
-8z m-140 -16 c0 -6 -7 -8 -16 -5 -10 4 -14 1 -11 -6 2 -8 15 -12 30 -10 16 2
27 -1 27 -8 0 -7 -7 -10 -15 -6 -11 4 -15 -2 -15 -25 0 -28 -2 -29 -34 -27
-23 1 -32 6 -29 15 3 7 9 10 14 7 5 -3 9 1 10 8 0 10 2 10 6 1 7 -19 22 -16
19 5 -2 12 -10 16 -29 14 -16 -2 -27 1 -27 8 0 7 7 10 15 6 9 -3 15 0 15 9 0
7 -8 16 -17 18 -10 3 -1 5 20 6 21 1 37 -4 37 -10z m-2741 -84 c0 -23 -2 -26
-9 -15 -5 8 -9 35 -9 60 1 41 2 42 9 15 4 -16 8 -43 9 -60z m298 63 c-3 -8 -6
-5 -6 6 -1 11 2 17 5 13 3 -3 4 -12 1 -19z m2743 12 c0 -5 -4 -10 -10 -10 -5
0 -10 5 -10 10 0 6 5 10 10 10 6 0 10 -4 10 -10z m-160 -44 c0 -64 -25 -68
-26 -5 -1 35 3 49 12 49 10 0 14 -14 14 -44z m-2602 -3 c0 -28 -2 -33 -8 -18
-6 17 -3 55 5 55 2 0 3 -17 3 -37z m3022 33 c0 -9 -50 -12 -62 -5 -8 6 1 9 25
9 20 0 37 -2 37 -4z m244 -28 c-3 -5 1 -17 9 -26 23 -28 27 -59 6 -57 -9 1
-24 7 -32 14 -10 8 -17 9 -22 1 -3 -5 -11 -10 -16 -10 -12 0 -1 42 14 51 5 4
6 12 3 18 -4 6 -2 11 4 11 6 0 9 4 6 9 -4 5 3 7 14 4 11 -3 17 -10 14 -15z
m50 7 c-4 -8 -10 -15 -15 -15 -4 0 -6 7 -3 15 4 8 10 15 15 15 4 0 6 -7 3 -15z
m-110 -10 c-4 -8 -11 -12 -16 -9 -6 4 -5 10 3 15 19 12 19 11 13 -6z m-4258
-33 c-5 -4 -66 26 -66 33 0 3 16 -3 35 -12 19 -9 33 -18 31 -21z m1019 20 c-3
-3 -11 0 -18 7 -9 10 -8 11 6 5 10 -3 15 -9 12 -12z m264 -32 c-2 -45 -8 -55
-31 -51 -5 0 -8 -8 -8 -19 0 -11 5 -20 10 -20 6 0 10 -4 10 -10 0 -5 -7 -7
-15 -4 -11 5 -15 24 -15 80 0 72 1 74 25 74 24 0 25 -3 24 -50z m-1239 20 c0
-5 -7 -7 -15 -4 -8 4 -15 8 -15 10 0 2 7 4 15 4 8 0 15 -4 15 -10z m874 -17
c6 -15 4 -15 -18 -7 -20 8 -21 21 -1 21 8 0 16 -6 19 -14z m56 5 c18 3 30 0
30 -7 0 -6 -4 -11 -10 -11 -5 0 -10 -25 -10 -55 0 -30 -4 -55 -10 -55 -5 0 -9
18 -7 40 3 34 1 39 -13 35 -14 -4 -17 2 -17 32 -1 21 1 33 3 27 3 -6 18 -8 34
-6z m130 2 c0 -5 -4 -10 -10 -10 -5 0 -10 5 -10 10 0 6 5 10 10 10 6 0 10 -4
10 -10z m3390 5 c0 -2 -10 -9 -22 -15 -22 -11 -22 -10 -4 4 21 17 26 19 26 11z
m-259 -38 c-10 -9 -11 -8 -5 6 3 10 9 15 12 12 3 -3 0 -11 -7 -18z m-3323 -6
c3 -8 -1 -12 -9 -9 -7 2 -15 10 -17 17 -3 8 1 12 9 9 7 -2 15 -10 17 -17z
m-589 -21 c11 -7 2 -9 -32 -6 -27 2 -54 9 -60 16 -10 10 -3 11 32 6 24 -4 51
-11 60 -16z m3121 11 c0 -17 -18 -22 -80 -23 -34 -1 -66 4 -72 10 -9 9 2 12
45 11 32 -1 61 1 64 5 10 10 43 7 43 -3z m743 3 c8 -8 -16 -33 -25 -27 -5 2
-8 -1 -8 -6 0 -6 8 -11 19 -11 22 0 45 -25 36 -40 -3 -5 -18 -10 -33 -9 -15 0
-39 -2 -53 -4 l-26 -4 18 36 c9 20 15 39 12 43 -2 5 3 8 11 8 9 0 16 5 16 10
0 11 23 14 33 4z m-3981 -26 c-12 -12 -35 -1 -27 12 3 5 13 6 21 3 10 -4 12
-9 6 -15z m1012 -14 c8 -32 6 -232 -3 -257 -5 -15 -9 -15 -23 -5 -14 11 -17
38 -21 151 -4 137 -4 137 18 137 16 0 25 -8 29 -26z m-217 -16 c-3 -7 -5 -2
-5 12 0 14 2 19 5 13 2 -7 2 -19 0 -25z m1988 -107 c1 -127 1 -129 -19 -122
-41 14 -59 8 -63 -24 -4 -29 -33 -65 -52 -65 -6 0 -15 -9 -21 -19 -9 -17 -7
-19 10 -16 11 2 22 0 25 -6 4 -5 0 -9 -7 -9 -7 0 -29 -16 -48 -36 -24 -25 -36
-32 -38 -22 -2 11 -13 14 -38 11 l-35 -4 20 23 c16 16 21 35 21 75 0 29 5 53
10 53 6 0 10 -29 10 -67 0 -36 3 -64 6 -61 5 6 10 74 13 186 1 36 5 52 14 52
14 0 17 -10 17 -66 1 -27 4 -31 20 -27 13 3 20 14 20 29 0 17 6 24 19 24 22 0
34 47 25 95 -5 26 -2 33 18 42 18 9 19 12 5 12 -13 1 -15 5 -8 19 5 9 12 25
15 34 4 14 43 29 55 21 3 -2 5 -61 6 -132z m-2641 116 c10 -8 13 -17 7 -26 -7
-11 -12 -11 -32 0 -24 13 -30 15 -49 18 -5 0 -10 5 -10 10 0 13 66 11 84 -2z
m592 -24 c-2 -10 4 -21 13 -25 14 -6 14 -7 -2 -7 -10 -1 -17 -7 -15 -13 3 -15
-3 -18 -42 -18 -27 0 -30 3 -30 34 0 36 9 44 52 45 20 1 26 -3 24 -16z m541
11 c-3 -3 -12 -4 -19 -1 -8 3 -5 6 6 6 11 1 17 -2 13 -5z m2773 -3 c0 -5 -6
-14 -14 -20 -12 -10 -14 -9 -11 6 2 10 4 19 4 21 2 6 21 1 21 -7z m36 -26 c-9
-14 -22 -25 -29 -25 -6 0 -3 7 7 15 11 8 16 15 12 15 -5 0 -3 7 4 15 20 24 25
9 6 -20z m-1552 19 c9 -3 13 -10 10 -15 -3 -5 0 -9 7 -9 7 0 10 -2 7 -5 -2 -3
-19 0 -37 6 -24 9 -29 14 -19 20 16 11 13 10 32 3z m-1631 -24 c-4 -16 -43
-31 -43 -16 0 2 -3 11 -6 20 -5 12 1 16 24 16 25 0 29 -3 25 -20z m2257 16 c0
-9 -39 -13 -51 -5 -10 6 -4 9 19 9 17 0 32 -2 32 -4z m-2982 -48 c8 -10 -1
-13 -41 -14 l-51 -1 34 13 c45 16 46 16 58 2z m1032 -28 c0 -36 -2 -40 -25
-40 -27 0 -35 16 -10 22 13 3 13 6 1 31 -14 26 -14 27 10 27 21 0 24 -4 24
-40z m-765 9 c20 -12 34 -24 31 -26 -6 -6 -74 26 -82 38 -9 15 13 10 51 -12z
m66 0 c23 -11 39 -22 37 -24 -7 -7 -73 14 -93 30 -18 13 -19 14 -2 15 10 0 36
-9 58 -21z m325 9 c5 -8 1 -9 -11 -4 -10 4 -21 3 -24 -3 -3 -5 -11 -3 -17 4
-9 9 -6 12 17 13 16 0 32 -4 35 -10z m54 -11 c0 -14 -6 -24 -15 -24 -21 0 -27
25 -7 36 23 14 22 14 22 -12z m558 16 c-10 -2 -26 -2 -35 0 -10 3 -2 5 17 5
19 0 27 -2 18 -5z m2582 -33 c-12 -17 -24 -29 -27 -26 -3 2 4 15 16 27 12 13
21 27 21 33 0 5 3 7 6 3 3 -3 -4 -20 -16 -37z m-2563 6 c3 -3 -6 -6 -20 -6
-15 0 -27 -5 -27 -10 0 -6 11 -8 25 -4 19 5 25 2 25 -10 0 -9 -5 -16 -10 -16
-7 0 -7 -6 0 -20 10 -18 7 -20 -22 -21 l-33 -2 35 -7 35 -7 -37 -2 c-28 -1
-38 3 -38 14 0 9 9 15 25 15 29 0 31 6 10 26 -13 14 -15 14 -15 0 0 -9 -4 -16
-10 -16 -10 0 -14 62 -4 72 7 7 52 3 61 -6z m-1277 -8 c0 -4 -9 -8 -20 -8 -11
0 -20 4 -20 8 0 4 9 8 20 8 11 0 20 -4 20 -8z m1180 8 c0 -8 -31 -36 -41 -36
-5 0 -9 9 -9 20 0 15 7 20 25 20 14 0 25 -2 25 -4z m286 -120 c-3 -69 -9 -132
-12 -141 -4 -9 0 -21 10 -28 11 -8 15 -23 12 -46 -3 -27 0 -35 16 -39 14 -3
18 -10 14 -26 -3 -11 -6 -42 -6 -68 0 -36 -4 -48 -15 -48 -12 0 -14 10 -11 45
6 74 -2 95 -35 95 -27 0 -53 19 -27 21 7 0 -4 9 -25 18 -20 10 -34 21 -30 25
4 4 -1 4 -12 0 -11 -4 -23 -12 -27 -18 -5 -7 -8 -7 -8 2 0 9 -5 10 -17 3 -16
-8 -18 -3 -17 65 1 57 -2 74 -13 74 -8 0 -11 5 -8 11 4 6 13 8 21 5 10 -4 14
2 14 19 0 22 3 24 33 20 25 -4 27 -3 8 3 -14 4 -26 13 -29 20 -3 9 18 12 79
12 100 0 101 9 1 11 -54 1 -72 5 -72 15 0 8 9 14 20 14 14 0 20 7 20 24 0 29
10 34 74 35 l49 1 -7 -124z m767 117 c-7 -2 -13 -14 -14 -26 0 -22 0 -22 -9 1
-5 12 -11 22 -13 22 -8 0 7 -66 17 -72 8 -6 8 -8 0 -8 -6 0 -11 -12 -11 -26 0
-15 -7 -30 -14 -35 -10 -6 -6 -9 14 -9 27 0 27 0 27 -70 0 -40 4 -70 10 -70 6
0 10 4 10 9 0 5 9 7 19 4 10 -3 30 1 42 7 13 7 2 -8 -25 -33 -44 -41 -49 -50
-51 -95 -4 -70 -13 -92 -32 -85 -11 4 -14 2 -9 -5 4 -7 4 -12 -1 -12 -16 0
-30 15 -36 39 -5 20 -3 23 19 18 l24 -4 0 105 c0 111 -7 136 -11 39 -3 -63
-15 -80 -36 -52 -11 17 -13 11 -13 -46 0 -35 -4 -70 -9 -78 -13 -21 -92 -26
-116 -7 -19 14 -15 15 43 9 52 -5 62 -3 62 10 0 9 -4 19 -10 22 -5 3 -10 23
-11 43 l-1 37 -12 -33 c-6 -18 -15 -30 -19 -26 -4 4 -7 3 -7 -3 0 -6 -7 -14
-16 -17 -14 -5 -15 1 -11 41 3 27 6 49 6 50 1 2 11 2 23 0 15 -1 24 5 30 23 7
25 8 25 4 -2 -2 -18 1 -28 10 -28 7 0 14 14 16 33 2 17 8 32 15 32 21 0 23 10
24 133 0 67 5 122 10 122 5 0 9 7 9 15 0 8 -6 15 -12 15 -9 0 -8 4 2 10 8 5
29 9 45 9 17 0 24 -3 18 -6z m1567 -18 c0 -2 -9 -3 -20 -2 -11 1 -20 7 -20 14
0 11 5 11 20 3 11 -6 20 -13 20 -15z m-2680 3 c0 -7 -5 -20 -10 -28 -8 -11 -9
-9 -8 13 2 26 18 40 18 15z m217 6 c-3 -3 -12 -4 -19 -1 -8 3 -5 6 6 6 11 1
17 -2 13 -5z m-1107 -14 c13 -9 13 -10 0 -9 -8 1 -26 5 -40 9 l-25 8 25 1 c14
0 32 -4 40 -9z m2920 4 c0 -8 -19 -13 -24 -6 -3 5 1 9 9 9 8 0 15 -2 15 -3z
m-2620 -52 c19 -12 42 -22 50 -22 25 0 63 -31 52 -42 -6 -6 -31 0 -68 16 -33
14 -52 26 -44 26 8 1 3 6 -12 12 -16 5 -28 14 -28 19 0 5 -6 9 -14 9 -7 0 -20
7 -27 16 -12 15 -10 15 21 1 19 -8 51 -24 70 -35z m1315 38 c3 -6 -1 -7 -9 -4
-18 7 -21 14 -7 14 6 0 13 -4 16 -10z m-1465 -10 c12 -8 9 -10 -12 -10 -16 0
-28 5 -28 10 0 13 20 13 40 0z m2740 0 c0 -5 -7 -7 -15 -4 -8 4 -15 8 -15 10
0 2 7 4 15 4 8 0 15 -4 15 -10z m-3139 -11 c16 -8 18 -13 8 -25 -17 -20 -32
-17 -59 11 l-23 25 27 0 c15 0 36 -5 47 -11z m204 1 c-4 -7 2 -9 18 -4 14 3
34 1 44 -6 16 -10 16 -10 -4 -5 -34 9 -28 -4 10 -20 36 -16 22 -20 -18 -5 -24
9 -25 8 -14 -12 11 -20 10 -21 -25 -15 -57 9 -84 46 -48 66 22 14 45 14 37 1z
m145 -6 c0 -2 -13 -4 -30 -4 -16 0 -30 4 -30 8 0 5 14 7 30 4 17 -2 30 -6 30
-8z m670 -5 c0 -5 -13 -9 -30 -9 -18 0 -30 5 -30 13 0 9 10 12 30 9 17 -2 30
-8 30 -13z m-586 -36 c3 -8 -1 -13 -12 -13 -19 0 -31 8 -50 32 -12 15 -10 16
22 6 19 -6 37 -17 40 -25z m586 -58 c0 -65 -6 -75 -28 -53 -9 9 -12 9 -12 0 0
-7 10 -17 23 -23 20 -9 20 -9 -5 -4 -16 3 -28 1 -28 -5 0 -5 12 -10 27 -10 17
0 24 -3 17 -10 -5 -5 -19 -7 -31 -4 -20 6 -22 12 -22 90 l0 84 29 0 30 0 0
-65z m2324 44 c-3 -5 -9 -7 -14 -4 -5 3 -11 1 -15 -5 -3 -5 -12 -10 -18 -10
-7 1 -1 9 12 20 22 19 47 18 35 -1z m-1678 -10 c0 -8 2 -49 2 -91 2 -62 5 -78
17 -78 12 0 15 -16 15 -84 0 -78 -2 -85 -19 -83 -18 1 -19 8 -17 77 2 41 -1
86 -5 100 -5 18 -8 8 -10 -40 -2 -41 -5 -16 -9 70 -3 74 -3 139 -2 143 6 13
27 2 28 -14z m-366 -6 c0 -15 -2 -16 -10 -3 -5 8 -10 11 -10 5 0 -5 -11 -10
-25 -10 -14 0 -25 6 -25 13 0 7 14 12 35 12 27 0 35 -4 35 -17z m2753 0 c-7
-2 -19 -2 -25 0 -7 3 -2 5 12 5 14 0 19 -2 13 -5z m-4010 -14 c12 -7 24 -15
27 -18 3 -4 18 -17 34 -29 25 -19 26 -22 9 -22 -11 0 -39 18 -62 40 -43 41
-45 48 -8 29z m291 -5 c20 -3 34 -10 31 -14 -7 -12 -54 -2 -79 17 -14 10 -16
14 -4 10 9 -3 33 -9 52 -13z m816 -62 c0 -204 -24 -336 -31 -167 -1 39 -4 48
-6 27 -4 -28 -7 -31 -19 -21 -11 9 -14 8 -15 -2 -1 -8 -5 6 -10 31 -9 56 -11
194 -2 203 3 4 24 7 45 7 l38 0 0 -78z m2487 41 c-2 -17 -9 -29 -19 -31 -16
-3 -16 -1 -2 27 19 38 23 39 21 4z m-3417 -6 c14 -5 31 -11 38 -13 8 -1 17 -6
20 -10 4 -4 -1 -4 -10 -1 -22 8 -23 -1 -1 -25 16 -17 15 -17 -16 -2 -17 8 -29
20 -26 25 4 5 0 6 -8 4 -7 -3 -26 6 -43 21 -28 25 -29 26 -4 19 14 -4 36 -12
50 -18z m223 6 c-7 -2 -19 -2 -25 0 -7 3 -2 5 12 5 14 0 19 -2 13 -5z m2697
-9 c0 -13 -57 -68 -87 -83 -19 -10 -21 -9 -18 9 5 25 -9 34 -25 15 -7 -8 -21
-15 -31 -15 -11 0 -19 -7 -19 -15 0 -8 -7 -15 -15 -15 -8 0 -22 -11 -31 -25
-21 -32 -48 -34 -38 -2 16 53 82 124 123 133 14 3 31 7 36 9 22 8 105 -1 105
-11z m-2701 -40 c3 -4 -5 -4 -19 -1 -19 5 -29 1 -38 -13 -7 -11 -19 -20 -28
-20 -13 0 -14 -3 -5 -14 20 -24 -6 -28 -29 -4 -25 27 -22 40 11 49 22 6 18 9
-21 13 -8 0 -16 8 -18 17 -2 14 5 14 69 -3 40 -10 75 -21 78 -24z m1588 39
c-14 -4 -16 -12 -12 -44 3 -21 7 -56 10 -76 2 -21 -2 -63 -9 -93 l-13 -55 0
46 c0 54 -7 69 -34 69 -16 0 -19 7 -19 40 0 24 5 40 12 40 9 0 9 3 0 12 -16
16 -15 55 1 61 6 3 28 5 47 5 19 0 27 -2 17 -5z m-790 -23 c-1 -11 -4 -20 -8
-20 -3 0 -7 -34 -8 -76 -3 -125 -20 -134 -20 -11 -1 89 2 107 14 107 8 0 15 5
15 10 0 6 2 10 4 10 3 0 4 -9 3 -20z m-687 6 c0 -3 -4 -8 -10 -11 -5 -3 -10
-1 -10 4 0 6 5 11 10 11 6 0 10 -2 10 -4z m2240 -22 c0 -8 -15 -26 -32 -41
-69 -59 -121 -114 -113 -121 4 -4 10 -1 12 6 3 6 11 12 18 12 17 0 30 -33 14
-39 -8 -2 -7 -6 2 -12 11 -7 10 -9 -3 -9 -10 0 -18 -6 -18 -12 0 -9 -4 -8 -10
2 -6 10 -10 11 -10 3 0 -7 -7 -13 -17 -13 -9 0 -14 -3 -10 -6 6 -6 -18 -36
-65 -82 -16 -15 -28 -32 -28 -38 0 -6 -10 -22 -23 -36 -13 -14 -22 -33 -21
-42 1 -9 -14 -25 -38 -40 -25 -15 -36 -26 -28 -31 17 -11 -18 -32 -66 -40
l-39 -7 30 17 c48 26 50 34 6 22 -35 -9 -43 -8 -61 8 -13 12 -18 26 -15 39 3
12 2 15 -1 9 -4 -10 -11 -10 -25 -2 -17 8 -18 13 -8 25 19 23 -5 43 -31 26
-10 -6 -26 -9 -35 -6 -8 3 -15 1 -15 -5 0 -6 -10 -11 -22 -11 -21 0 -20 2 7
16 44 24 93 34 98 20 4 -12 7 -10 105 43 30 16 61 36 71 45 9 8 36 17 59 18
23 2 42 7 42 11 0 5 5 5 10 2 6 -3 10 -2 10 4 0 5 -9 12 -20 16 -30 10 -5 43
31 41 16 -1 26 0 23 3 -2 3 6 11 18 18 23 13 22 13 -4 7 -16 -3 -28 -4 -28 0
0 14 72 76 82 70 7 -5 9 1 5 18 -5 19 1 32 31 60 20 19 46 40 56 45 24 13 56
5 56 -13z m400 18 c0 -5 13 -7 30 -6 l30 2 -6 -52 c-9 -74 -23 -98 -74 -123
-43 -22 -127 -32 -116 -14 3 5 -1 11 -9 14 -21 9 -1 60 43 115 42 51 102 89
102 64z m-2395 -22 c3 -5 -3 -10 -14 -10 -12 0 -21 5 -21 10 0 6 6 10 14 10 8
0 18 -4 21 -10z m2055 -19 c0 -5 -7 -12 -16 -15 -14 -5 -15 -4 -4 9 14 17 20
19 20 6z m-2423 -49 c-12 -11 -18 -12 -36 0 -27 17 -27 26 2 30 33 6 52 -11
34 -30z m1185 0 c3 -9 -4 -26 -14 -36 -18 -19 -18 -19 -18 22 0 31 3 40 14 36
8 -3 16 -13 18 -22z m-939 5 c8 -20 -5 -32 -35 -34 -32 -2 -36 13 -10 33 22
17 39 17 45 1z m1170 -12 c-7 -21 -12 -19 -10 4 0 11 5 18 9 15 4 -3 5 -11 1
-19z m16 -102 c-14 -26 -29 -30 -29 -8 0 8 7 15 15 15 17 0 20 16 5 25 -5 3
-10 1 -10 -5 0 -6 -4 -9 -9 -6 -13 9 -1 46 15 46 9 0 15 12 16 33 1 17 3 7 5
-23 3 -31 -1 -64 -8 -77z m1887 78 c-4 -6 -15 -11 -24 -10 -11 0 -12 3 -4 6 6
2 12 12 12 21 0 12 3 13 11 5 6 -6 8 -16 5 -22z m204 -17 c0 -2 -9 -4 -20 -4
-11 0 -20 4 -20 9 0 5 9 7 20 4 11 -3 20 -7 20 -9z m-1124 -19 l26 -24 -35
-48 c-35 -48 -88 -102 -72 -73 5 9 -1 7 -15 -5 -16 -14 -24 -16 -27 -7 -3 6
-10 9 -16 5 -7 -4 -5 2 3 12 8 10 10 16 3 12 -28 -17 -20 14 12 47 19 20 35
40 35 46 0 5 4 20 10 34 12 33 41 33 76 1z m-1209 -25 c0 -14 -2 -19 -4 -12
-3 6 -11 12 -19 12 -8 0 -14 6 -14 14 0 8 8 14 19 13 13 -1 18 -9 18 -27z
m375 5 c3 -14 2 -25 -2 -25 -5 0 -6 -8 -3 -19 3 -10 0 -22 -6 -25 -7 -5 -11
10 -11 43 0 53 14 69 22 26z m-1450 0 c4 -5 2 -15 -4 -22 -15 -18 21 -46 39
-31 21 17 140 15 157 -2 28 -27 30 -72 6 -103 -13 -16 -27 -26 -34 -24 -6 2
-22 8 -36 12 -24 7 -24 6 -6 -8 27 -20 15 -42 -34 -66 -30 -14 -48 -17 -70
-11 -15 4 -31 6 -34 3 -3 -3 -19 0 -36 7 -24 10 -28 15 -19 26 7 9 8 14 1 14
-5 0 -13 -7 -16 -16 -6 -15 -8 -15 -24 -1 -11 10 -28 15 -45 11 -37 -6 -52 3
-35 23 11 14 10 15 -12 9 -14 -4 -20 -4 -14 1 6 4 14 16 17 27 6 14 14 17 37
12 18 -3 47 1 71 11 31 12 46 13 65 5 15 -7 24 -8 24 -2 0 6 -6 10 -12 10 -8
1 -6 6 5 14 12 9 14 16 7 21 -5 3 -8 10 -5 15 3 5 1 12 -5 15 -6 4 -8 15 -5
25 3 10 0 22 -6 26 -8 5 -9 3 -4 -6 5 -9 4 -11 -3 -6 -7 4 -12 12 -12 17 0 12
32 8 42 -6z m1218 -14 c0 -10 -7 -21 -15 -25 -11 -4 -15 1 -15 19 0 16 6 25
15 25 8 0 15 -9 15 -19z m33 -29 c-9 -59 -23 -61 -23 -4 0 40 3 50 14 46 11
-4 13 -16 9 -42z m-1565 23 c40 -6 50 -14 36 -28 -4 -3 -13 0 -21 8 -8 8 -32
15 -54 15 -21 0 -39 5 -39 11 0 6 8 8 18 5 9 -2 36 -8 60 -11z m1672 -15 c0
-11 -4 -20 -10 -20 -5 0 -10 9 -10 20 0 11 5 20 10 20 6 0 10 -9 10 -20z
m1118 4 c20 -6 -1 -37 -50 -75 -24 -18 -40 -29 -36 -25 4 5 0 26 -9 49 -15 37
-15 41 0 52 15 10 61 10 95 -1z m-624 -34 c0 -34 -48 -61 -92 -52 l-32 7 26
38 c23 34 29 38 62 35 31 -3 37 -7 36 -28z m1136 19 c0 -42 -68 -63 -102 -32
-33 29 -27 33 70 41 20 2 32 -2 32 -9z m-3119 -21 c37 -21 63 -53 33 -41 -7 3
-14 9 -14 14 0 6 -19 18 -42 29 -24 10 -37 19 -29 19 7 1 31 -9 52 -21z m1199
-24 c-6 -14 -8 -30 -4 -35 3 -5 0 -9 -7 -9 -7 0 -10 -2 -7 -5 3 -3 51 6 106
20 127 32 149 32 97 0 -24 -15 -48 -22 -59 -19 -12 4 -16 2 -12 -5 4 -6 13
-11 21 -11 8 0 17 -5 21 -12 5 -8 1 -9 -12 -5 -18 7 -18 6 1 -9 16 -14 17 -16
2 -11 -24 9 -70 -10 -61 -25 4 -6 3 -8 -3 -5 -13 8 -85 -12 -79 -22 8 -12 -40
-31 -76 -31 -26 0 -29 2 -18 15 7 8 23 15 36 15 27 0 74 20 74 31 0 5 -10 11
-23 14 -20 5 -24 13 -26 57 -2 38 2 53 16 64 24 18 24 18 13 -12z m1296 -12
c-1 -31 -5 -38 -21 -38 -11 1 -24 7 -28 14 -6 9 -13 9 -30 1 -18 -9 -16 -6 8
20 16 17 35 29 42 27 7 -3 13 -1 13 4 0 6 4 10 8 10 5 0 8 -17 8 -38z m495 4
c-6 -8 -22 -16 -34 -19 -22 -6 -22 -6 2 14 27 22 49 26 32 5z m-1011 -31 c-7
-9 -15 -13 -19 -10 -3 3 1 10 9 15 21 14 24 12 10 -5z m-2190 -15 c8 -5 11
-10 5 -10 -5 0 -17 5 -25 10 -8 5 -10 10 -5 10 6 0 17 -5 25 -10z m1045 -11
c-7 -21 -13 -47 -14 -62 -1 -5 -9 -6 -18 -3 -10 3 -32 7 -49 8 -17 1 -37 9
-44 17 -12 12 -11 14 7 9 13 -4 24 -1 27 7 3 10 58 35 94 44 2 1 0 -9 -3 -20z
m125 11 c0 -13 -11 -13 -30 0 -12 8 -11 10 8 10 12 0 22 -4 22 -10z m936 -11
c-14 -11 -26 -25 -26 -30 0 -6 -7 -17 -15 -25 -8 -9 -15 -11 -15 -5 0 7 -10 9
-27 5 -26 -7 -27 -6 -14 10 14 17 97 65 115 66 5 0 -3 -9 -18 -21z m543 7 c-2
-2 -15 -9 -29 -15 -24 -11 -24 -11 -6 3 16 13 49 24 35 12z m-2529 -11 c0 -7
-30 -13 -34 -7 -3 4 4 9 15 9 10 1 19 0 19 -2z m1105 -6 c4 -5 -2 -18 -13 -27
-10 -9 -17 -22 -15 -27 2 -6 -11 -19 -28 -29 -24 -14 -28 -21 -18 -27 8 -5 10
-9 4 -9 -5 0 -21 -3 -35 -6 -17 -4 -21 -3 -12 4 11 7 11 10 -2 15 -8 3 -18 2
-21 -3 -4 -6 -10 -10 -16 -10 -5 0 8 18 28 40 21 22 46 40 56 40 10 0 15 5 12
10 -4 6 -1 17 5 25 14 17 46 20 55 4z m605 -8 c0 -5 -13 -15 -29 -22 -17 -8
-27 -18 -24 -26 3 -7 0 -13 -7 -13 -6 0 -9 -4 -6 -8 3 -5 -8 -6 -24 -4 -32 5
-31 22 1 22 25 0 25 16 -1 23 -11 3 -30 -3 -45 -15 -25 -19 -25 -19 -51 1 -15
12 -33 21 -40 21 -7 0 -16 5 -20 11 -4 8 3 9 22 5 16 -3 45 -2 64 3 50 11 160
13 160 2z m-500 -11 c0 -5 -4 -10 -9 -10 -5 0 -18 -3 -28 -6 -16 -5 -16 -4 1
10 23 18 36 20 36 6z m1360 -15 c0 -8 -52 -26 -58 -20 -3 2 6 9 19 14 28 11
39 13 39 6z m-1920 -20 c10 -12 10 -21 2 -40 -7 -14 -16 -25 -21 -25 -6 0 -8
-6 -5 -13 8 -22 -24 -40 -70 -41 -46 0 -156 48 -156 68 0 11 21 27 70 53 36
19 164 17 180 -2z m340 0 c0 -7 -57 -35 -72 -35 -20 1 32 40 53 40 10 0 19 -2
19 -5z m1384 -16 c-5 -9 6 -10 40 -7 25 3 46 1 46 -4 0 -5 -4 -6 -10 -3 -5 3
-10 1 -10 -5 0 -7 -7 -10 -15 -6 -8 3 -15 0 -15 -6 0 -6 -3 -8 -7 -5 -3 4 -11
3 -17 -2 -23 -17 -45 -19 -57 -5 -10 12 -9 13 4 9 13 -6 29 8 33 28 3 15 4 17
10 17 3 0 2 -5 -2 -11z m126 7 c0 -2 -7 -6 -15 -10 -8 -3 -15 -1 -15 4 0 6 7
10 15 10 8 0 15 -2 15 -4z m-1684 -15 c-10 -16 -56 -20 -56 -5 0 9 11 14 31
14 16 0 28 -4 25 -9z m84 -17 c0 -8 -11 -19 -25 -24 -22 -8 -24 -12 -13 -24 7
-7 24 -12 37 -9 l24 4 -24 -20 c-17 -13 -28 -16 -36 -9 -8 7 -24 6 -48 -2 -20
-7 -39 -10 -42 -7 -3 3 -17 1 -31 -4 -22 -9 -24 -8 -12 7 16 18 21 54 8 54 -4
0 -8 5 -8 10 0 6 22 8 58 5 31 -2 49 -2 40 1 -27 8 -21 20 15 31 37 11 57 7
57 -13z m492 -22 c-7 -2 -12 -10 -12 -18 0 -9 -4 -12 -10 -9 -5 3 -10 2 -10
-4 0 -5 -10 -11 -22 -13 -13 -2 -29 -15 -36 -30 -11 -24 -19 -28 -53 -28 -47
0 -50 13 -8 30 18 8 37 27 47 46 13 28 21 33 56 36 42 3 70 -2 48 -10z m338 8
c0 -5 -5 -10 -11 -10 -5 0 -7 5 -4 10 3 6 8 10 11 10 2 0 4 -4 4 -10z m-90
-14 c0 -2 -9 -6 -20 -9 -11 -3 -20 -1 -20 4 0 5 9 9 20 9 11 0 20 -2 20 -4z
m590 -5 c0 -5 -9 -11 -20 -14 -22 -6 -28 8 -7 16 19 8 27 8 27 -2z m-1020 -10
c0 -12 -109 -35 -118 -26 -4 4 2 13 12 21 22 16 106 19 106 5z m560 -10 c0 -5
-9 -11 -20 -14 -13 -3 -20 0 -20 9 0 8 9 14 20 14 11 0 20 -4 20 -9z m118 -11
c-7 -11 -15 -20 -18 -21 -3 0 -22 -2 -43 -4 l-38 -3 26 24 c15 14 38 24 56 24
27 0 28 -2 17 -20z m-638 1 c0 -13 -56 -33 -77 -28 -14 3 -10 8 17 20 40 18
60 21 60 8z m1046 -6 c-11 -8 -24 -15 -29 -15 -5 0 -7 -7 -3 -15 3 -8 1 -15
-4 -15 -21 0 -9 30 18 44 35 19 42 19 18 1z m-1246 -5 c0 -5 -5 -10 -11 -10
-5 0 -15 -13 -20 -30 -7 -19 -18 -30 -29 -30 -25 0 -30 10 -19 38 11 30 79 58
79 32z m88 -16 c-10 -10 -21 -13 -29 -8 -12 7 0 14 41 23 2 1 -3 -6 -12 -15z
m-278 -5 c0 -6 8 -8 19 -4 11 3 23 0 27 -6 4 -7 3 -9 -4 -5 -6 3 -13 2 -17 -3
-3 -6 -12 -8 -20 -6 -51 16 -50 16 -35 25 20 13 30 12 30 -1z m695 1 c-3 -5
-11 -10 -16 -10 -6 0 -7 5 -4 10 3 6 11 10 16 10 6 0 7 -4 4 -10z m355 6 c0
-3 -4 -8 -10 -11 -5 -3 -10 -1 -10 4 0 6 5 11 10 11 6 0 10 -2 10 -4z m-563
-12 c-3 -3 -12 -4 -19 -1 -8 3 -5 6 6 6 11 1 17 -2 13 -5z m788 -4 c3 -5 1
-10 -4 -10 -6 0 -11 5 -11 10 0 6 2 10 4 10 3 0 8 -4 11 -10z m-465 -20 c0 -5
-8 -10 -17 -10 -15 0 -16 2 -3 10 19 12 20 12 20 0z m440 6 c0 -2 -7 -7 -16
-10 -8 -3 -12 -2 -9 4 6 10 25 14 25 6z m-580 -26 c0 -5 -5 -10 -11 -10 -5 0
-7 5 -4 10 3 6 8 10 11 10 2 0 4 -4 4 -10z m434 -5 c-4 -8 -1 -15 7 -15 7 0
10 -2 7 -5 -3 -3 -13 -3 -22 1 -20 8 -21 34 -1 34 9 0 12 -6 9 -15z m629 8
c-7 -2 -19 -2 -25 0 -7 3 -2 5 12 5 14 0 19 -2 13 -5z m-567 -18 c-10 -8 -24
-11 -30 -8 -6 4 0 10 14 14 36 10 37 10 16 -6z m-963 -27 c55 -20 58 -22 36
-31 -36 -14 -117 -13 -178 2 -45 12 -51 15 -35 24 20 12 69 24 98 26 10 1 46
-9 79 -21z m384 6 c-3 -3 -12 -4 -19 -1 -8 3 -5 6 6 6 11 1 17 -2 13 -5z"/>
<path d="M1878 3803 c7 -3 16 -2 19 1 4 3 -2 6 -13 5 -11 0 -14 -3 -6 -6z"/>
<path d="M3275 3801 c-3 -6 -1 -11 5 -11 6 0 9 -4 6 -9 -3 -5 10 -9 29 -8 39
1 59 27 21 27 -14 0 -31 3 -39 6 -8 3 -18 1 -22 -5z"/>
<path d="M3323 3620 c-2 -27 39 -44 84 -35 44 8 42 25 -2 25 -23 0 -34 4 -32
13 1 6 -9 13 -23 15 -20 2 -26 -2 -27 -18z"/>
<path d="M3218 3583 c6 -2 10 -9 6 -14 -3 -5 2 -9 12 -9 13 0 14 3 4 15 -7 8
-18 15 -24 14 -7 0 -6 -2 2 -6z"/>
<path d="M3298 3553 c7 -3 16 -2 19 1 4 3 -2 6 -13 5 -11 0 -14 -3 -6 -6z"/>
<path d="M3272 3534 c13 -13 89 -22 85 -10 -2 6 -23 12 -48 14 -24 2 -41 0
-37 -4z"/>
<path d="M3475 3380 c-3 -5 2 -10 12 -10 14 0 15 -2 4 -9 -7 -5 -9 -11 -4 -14
9 -5 50 20 42 27 -12 11 -48 15 -54 6z"/>
<path d="M2893 3348 c-11 -13 -24 -30 -28 -38 -8 -16 -6 -14 34 33 14 15 22
27 19 27 -2 0 -14 -10 -25 -22z"/>
<path d="M2903 3298 c-23 -30 -24 -41 -2 -21 12 12 20 25 17 28 -3 3 -10 0
-15 -7z"/>
<path d="M2919 3233 c-13 -16 -12 -17 4 -4 16 13 21 21 13 21 -2 0 -10 -8 -17
-17z"/>
<path d="M2876 3228 c-10 -32 -16 -68 -11 -68 4 0 35 67 35 76 0 10 -21 3 -24
-8z"/>
<path d="M2166 3203 c-4 -8 -13 -13 -21 -9 -8 3 -15 1 -15 -4 0 -6 -3 -10 -7
-9 -22 3 -52 -16 -64 -39 -8 -15 -24 -42 -37 -59 -14 -18 -22 -33 -18 -33 5 0
-3 -11 -44 -59 -8 -10 -21 -20 -28 -22 -7 -2 49 -4 125 -4 76 0 194 -3 263 -6
69 -3 104 -4 77 -2 l-48 4 2 85 1 85 -38 34 c-36 31 -55 40 -78 36 -5 -1 -21
2 -37 8 -22 7 -29 6 -33 -6z m57 -198 c-18 -12 -63 -26 -63 -20 0 13 33 33 55
33 23 0 24 -2 8 -13z"/>
<path d="M3006 3201 c-4 -6 -16 -11 -28 -11 -11 0 -31 -9 -45 -19 -13 -11 -30
-18 -38 -15 -11 4 -13 -13 -13 -86 0 -57 -4 -96 -11 -103 -8 -8 -78 -14 -199
-18 -153 -5 -146 -5 38 -2 268 6 614 18 582 21 -12 1 -26 10 -29 20 -7 17 -15
28 -40 57 -7 7 -13 18 -13 23 0 5 -11 21 -25 36 -13 14 -21 26 -18 26 3 0 -2
9 -12 20 -10 11 -23 20 -28 20 -5 0 -15 7 -21 15 -14 19 -91 31 -100 16z"/>
<path d="M1290 3060 c-6 -11 -7 -20 -2 -20 6 0 12 9 15 20 3 11 3 20 1 20 -2
0 -8 -9 -14 -20z"/>
<path d="M3648 3043 c7 -3 16 -2 19 1 4 3 -2 6 -13 5 -11 0 -14 -3 -6 -6z"/>
<path d="M1878 2953 c7 -3 16 -2 19 1 4 3 -2 6 -13 5 -11 0 -14 -3 -6 -6z"/>
<path d="M1768 2933 c6 -2 18 -2 25 0 6 3 1 5 -13 5 -14 0 -19 -2 -12 -5z"/>
<path d="M1488 2403 c7 -3 16 -2 19 1 4 3 -2 6 -13 5 -11 0 -14 -3 -6 -6z"/>
<path d="M1586 2230 c-17 -6 -18 -7 -3 -13 9 -3 19 -2 23 4 9 15 2 18 -20 9z"/>
<path d="M1604 2165 c1 -28 4 -29 26 -15 12 7 12 10 1 10 -7 0 -11 6 -7 15 3
9 0 15 -8 15 -9 0 -13 -10 -12 -25z"/>
<path d="M1355 2120 c3 -5 8 -10 11 -10 2 0 4 5 4 10 0 6 -5 10 -11 10 -5 0
-7 -4 -4 -10z"/>
<path d="M3020 2126 c0 -2 8 -10 18 -17 15 -13 16 -12 3 4 -13 16 -21 21 -21
13z"/>
<path d="M1618 2104 c-16 -8 -28 -17 -28 -19 0 -11 19 -4 41 15 29 23 24 25
-13 4z"/>
<path d="M1715 2110 c-3 -6 1 -7 9 -4 18 7 21 14 7 14 -6 0 -13 -4 -16 -10z"/>
<path d="M2023 2093 c9 -2 23 -2 30 0 6 3 -1 5 -18 5 -16 0 -22 -2 -12 -5z"/>
<path d="M1712 2066 c-46 -33 -53 -43 -14 -20 19 10 38 25 44 32 15 17 8 14
-30 -12z"/>
<path d="M1978 2083 c7 -3 16 -2 19 1 4 3 -2 6 -13 5 -11 0 -14 -3 -6 -6z"/>
<path d="M1900 2059 l-25 -20 30 14 c17 8 37 17 45 20 11 4 9 6 -5 6 -11 0
-31 -9 -45 -20z"/>
<path d="M2010 2070 c0 -13 20 -13 40 0 12 8 9 10 -12 10 -16 0 -28 -4 -28
-10z"/>
<path d="M1716 2005 c-11 -8 -17 -17 -14 -20 2 -3 13 4 23 15 21 23 18 25 -9
5z"/>
<path d="M1685 1890 c-3 -5 -2 -10 4 -10 5 0 13 5 16 10 3 6 2 10 -4 10 -5 0
-13 -4 -16 -10z"/>
<path d="M3025 1870 c3 -5 11 -10 16 -10 6 0 7 5 4 10 -3 6 -11 10 -16 10 -6
0 -7 -4 -4 -10z"/>
<path d="M1743 1827 c-13 -5 -23 -13 -23 -16 0 -13 39 -9 50 4 15 18 0 25 -27
12z"/>
<path d="M2390 1790 c-12 -8 -12 -10 -1 -10 10 0 11 -3 2 -14 -10 -11 -9 -14
1 -12 7 1 18 5 25 9 7 5 9 1 6 -13 -4 -16 0 -20 18 -21 13 -1 42 -3 63 -5 43
-3 79 11 73 29 -2 6 -17 13 -33 14 -16 1 -34 9 -40 17 -6 9 -14 13 -18 9 -10
-10 -46 -11 -40 -1 3 4 1 8 -5 8 -5 0 -13 -4 -16 -10 -3 -5 -11 -10 -16 -10
-6 0 -7 5 -4 10 8 12 4 12 -15 0z"/>
<path d="M4725 2890 c-18 -8 -17 -9 8 -9 16 -1 26 3 22 9 -3 6 -7 10 -8 9 -1
0 -11 -4 -22 -9z"/>
<path d="M4730 2850 c0 -6 7 -10 15 -10 8 0 15 2 15 4 0 2 -7 6 -15 10 -8 3
-15 1 -15 -4z"/>
<path d="M4740 2820 c-9 -6 -10 -10 -3 -10 6 0 15 5 18 10 8 12 4 12 -15 0z"/>
<path d="M4716 2783 c-9 -24 -7 -33 9 -33 7 0 19 -8 24 -17 9 -16 10 -16 11 5
0 16 -6 22 -22 23 l-23 0 23 9 c27 11 28 16 3 23 -12 3 -22 -1 -25 -10z"/>
<path d="M4710 2698 c0 -7 11 -13 25 -13 14 0 25 6 25 13 0 6 -11 12 -25 12
-14 0 -25 -6 -25 -12z"/>
<path d="M4712 2640 c0 -14 2 -19 5 -12 2 6 2 18 0 25 -3 6 -5 1 -5 -13z"/>
<path d="M4730 2646 c0 -7 7 -13 15 -13 8 0 15 4 15 8 0 4 -7 9 -15 13 -9 3
-15 0 -15 -8z"/>
<path d="M4730 2600 c0 -5 7 -7 15 -4 8 4 15 8 15 10 0 2 -7 4 -15 4 -8 0 -15
-4 -15 -10z"/>
<path d="M4710 2549 c0 -5 5 -7 10 -4 6 3 10 8 10 11 0 2 -4 4 -10 4 -5 0 -10
-5 -10 -11z"/>
<path d="M4740 2550 c0 -5 5 -10 10 -10 6 0 10 5 10 10 0 6 -4 10 -10 10 -5 0
-10 -4 -10 -10z"/>
<path d="M4710 2499 c0 -5 11 -9 25 -9 14 0 25 2 25 4 0 2 -11 6 -25 8 -14 3
-25 1 -25 -3z"/>
<path d="M4710 2460 c0 -11 2 -20 4 -20 2 0 6 9 9 20 3 11 1 20 -4 20 -5 0 -9
-9 -9 -20z"/>
<path d="M4740 2470 c0 -5 5 -10 11 -10 5 0 7 5 4 10 -3 6 -8 10 -11 10 -2 0
-4 -4 -4 -10z"/>
<path d="M4638 2443 c7 -3 16 -2 19 1 4 3 -2 6 -13 5 -11 0 -14 -3 -6 -6z"/>
<path d="M4710 2400 c0 -5 5 -10 10 -10 6 0 10 5 10 10 0 6 -4 10 -10 10 -5 0
-10 -4 -10 -10z"/>
<path d="M4745 2400 c-3 -5 -1 -10 4 -10 6 0 11 5 11 10 0 6 -2 10 -4 10 -3 0
-8 -4 -11 -10z"/>
<path d="M4630 2385 c0 -8 4 -15 10 -15 5 0 7 7 4 15 -4 8 -8 15 -10 15 -2 0
-4 -7 -4 -15z"/>
<path d="M4710 2358 c0 -4 12 -8 27 -8 14 0 23 3 19 7 -10 10 -46 11 -46 1z"/>
<path d="M4630 2295 c0 -35 4 -54 10 -50 6 3 10 26 10 50 0 24 -4 47 -10 50
-6 4 -10 -15 -10 -50z"/>
<path d="M4710 2269 c0 -5 5 -7 10 -4 6 3 10 8 10 11 0 2 -4 4 -10 4 -5 0 -10
-5 -10 -11z"/>
<path d="M4745 2130 c-3 -5 -1 -10 4 -10 6 0 11 5 11 10 0 6 -2 10 -4 10 -3 0
-8 -4 -11 -10z"/>
<path d="M4706 1995 c-3 -9 0 -15 9 -15 9 0 12 6 9 15 -4 8 -7 15 -9 15 -2 0
-5 -7 -9 -15z"/>
<path d="M1008 2962 c-10 -2 -18 -8 -18 -13 0 -11 11 -11 30 1 18 11 11 18
-12 12z"/>
<path d="M911 2724 c0 -11 3 -14 6 -6 3 7 2 16 -1 19 -3 4 -6 -2 -5 -13z"/>
<path d="M312 2620 c0 -14 2 -19 5 -12 2 6 2 18 0 25 -3 6 -5 1 -5 -13z"/>
<path d="M311 2404 c1 -22 3 -30 6 -19 3 11 10 23 15 26 5 3 2 12 -7 19 -13
11 -15 8 -14 -26z"/>
<path d="M118 2543 c7 -3 16 -2 19 1 4 3 -2 6 -13 5 -11 0 -14 -3 -6 -6z"/>
<path d="M570 2430 c-13 -8 -13 -10 2 -10 9 0 20 5 23 10 8 13 -5 13 -25 0z"/>
<path d="M590 2386 c0 -2 11 -6 25 -8 13 -3 22 -1 19 3 -5 9 -44 13 -44 5z"/>
<path d="M550 2376 c0 -2 9 -6 20 -9 11 -3 18 -1 14 4 -5 9 -34 13 -34 5z"/>
<path d="M660 2120 c0 -5 5 -10 11 -10 5 0 7 5 4 10 -3 6 -8 10 -11 10 -2 0
-4 -4 -4 -10z"/>
<path d="M310 2105 c0 -8 2 -15 4 -15 2 0 6 7 10 15 3 8 1 15 -4 15 -6 0 -10
-7 -10 -15z"/>
<path d="M305 2040 c3 -5 8 -10 11 -10 2 0 4 5 4 10 0 6 -5 10 -11 10 -5 0 -7
-4 -4 -10z"/>
<path d="M334 1760 c0 -13 4 -16 10 -10 7 7 7 13 0 20 -6 6 -10 3 -10 -10z"/>
<path d="M1302 1864 c-21 -42 -21 -44 -3 -35 15 8 35 68 27 78 -1 2 -12 -18
-24 -43z"/>
<path d="M787 1447 c-14 -14 -16 -22 -8 -30 6 -6 11 -32 11 -58 0 -29 5 -49
13 -52 10 -4 12 12 9 67 -4 94 -4 94 -25 73z"/>
<path d="M935 1448 c-4 -10 -4 -26 0 -35 8 -17 8 -17 12 0 3 9 3 25 0 35 -4
16 -4 16 -12 0z"/>
<path d="M1015 1440 c-3 -6 1 -7 9 -4 18 7 21 14 7 14 -6 0 -13 -4 -16 -10z"/>
<path d="M860 1393 c0 -5 5 -15 10 -23 8 -12 10 -11 10 8 0 12 -4 22 -10 22
-5 0 -10 -3 -10 -7z"/>
<path d="M1161 1384 c0 -11 3 -14 6 -6 3 7 2 16 -1 19 -3 4 -6 -2 -5 -13z"/>
<path d="M900 1340 c-9 -6 -10 -10 -3 -10 6 0 15 5 18 10 8 12 4 12 -15 0z"/>
<path d="M520 1330 c0 -5 5 -10 11 -10 5 0 7 5 4 10 -3 6 -8 10 -11 10 -2 0
-4 -4 -4 -10z"/>
<path d="M1200 1250 c0 -5 5 -10 10 -10 6 0 10 5 10 10 0 6 -4 10 -10 10 -5 0
-10 -4 -10 -10z"/>
<path d="M1204 1221 c4 -5 0 -12 -6 -14 -8 -3 -6 -6 5 -6 9 -1 17 6 17 14 0 8
-5 15 -11 15 -5 0 -8 -4 -5 -9z"/>
<path d="M810 1193 c13 -18 25 -33 27 -33 8 0 -17 38 -33 51 -11 9 -9 2 6 -18z"/>
<path d="M4827 1783 c-11 -10 -8 -20 7 -26 10 -4 12 0 9 14 -6 21 -7 22 -16
12z"/>
<path d="M4590 1640 c0 -11 4 -20 9 -20 5 0 7 9 4 20 -3 11 -7 20 -9 20 -2 0
-4 -9 -4 -20z"/>
<path d="M4759 1573 c-7 -43 -1 -50 41 -42 19 3 30 7 24 8 -7 0 -15 13 -19 29
-4 15 -10 21 -12 15 -7 -19 -21 -16 -25 5 -3 10 -6 4 -9 -15z"/>
<path d="M4710 1570 c0 -5 5 -10 11 -10 5 0 7 5 4 10 -3 6 -8 10 -11 10 -2 0
-4 -4 -4 -10z"/>
<path d="M4575 1560 c3 -5 8 -10 11 -10 2 0 4 5 4 10 0 6 -5 10 -11 10 -5 0
-7 -4 -4 -10z"/>
<path d="M4274 1123 c1 -17 -40 -28 -49 -13 -3 5 -12 7 -20 4 -25 -10 11 -37
40 -30 32 8 41 -9 13 -28 -21 -15 -21 -15 8 -13 16 1 34 8 39 15 6 8 27 18 45
23 29 7 26 8 -17 3 -56 -5 -59 -3 -43 26 7 13 6 19 -4 23 -8 3 -13 -1 -12 -10z"/>
<path d="M3518 1094 c-9 -8 3 -44 13 -38 11 7 12 44 1 44 -5 0 -11 -3 -14 -6z"/>
<path d="M4345 1029 c-4 -6 -4 -13 -1 -16 3 -4 -3 -13 -14 -20 -20 -14 -19
-33 1 -33 6 0 8 4 5 9 -4 5 -1 11 4 13 6 2 12 10 13 18 2 8 6 21 10 28 5 6 4
12 -2 12 -5 0 -13 -5 -16 -11z"/>
<path d="M4551 944 c0 -11 3 -14 6 -6 3 7 2 16 -1 19 -3 4 -6 -2 -5 -13z"/>
<path d="M3202 840 c0 -14 2 -19 5 -12 2 6 2 18 0 25 -3 6 -5 1 -5 -13z"/>
<path d="M2150 979 c0 -5 5 -7 10 -4 6 3 10 8 10 11 0 2 -4 4 -10 4 -5 0 -10
-5 -10 -11z"/>
<path d="M2200 980 c0 -5 5 -10 10 -10 6 0 10 5 10 10 0 6 -4 10 -10 10 -5 0
-10 -4 -10 -10z"/>
<path d="M2195 900 c-17 -7 -14 -9 13 -9 20 -1 31 3 27 9 -7 12 -13 12 -40 0z"/>
<path d="M2208 873 c7 -3 16 -2 19 1 4 3 -2 6 -13 5 -11 0 -14 -3 -6 -6z"/>
<path d="M2095 790 c3 -5 8 -10 11 -10 2 0 4 5 4 10 0 6 -5 10 -11 10 -5 0 -7
-4 -4 -10z"/>
<path d="M2162 768 c2 -19 7 -27 16 -23 7 3 20 5 28 5 27 0 14 20 -13 21 l-28
1 25 7 25 7 -28 6 c-25 5 -27 3 -25 -24z"/>
<path d="M2978 833 c7 -3 16 -2 19 1 4 3 -2 6 -13 5 -11 0 -14 -3 -6 -6z"/>
<path d="M727 959 c7 -7 15 -10 18 -7 3 3 -2 9 -12 12 -14 6 -15 5 -6 -5z"/>
<path d="M1868 798 c9 -9 15 -9 24 0 9 9 7 12 -12 12 -19 0 -21 -3 -12 -12z"/>
<path d="M2720 820 c0 -5 6 -10 14 -10 8 0 18 5 21 10 3 6 -3 10 -14 10 -12 0
-21 -4 -21 -10z"/>
<path d="M3159 353 c-13 -15 -12 -15 9 -4 23 12 28 21 13 21 -5 0 -15 -7 -22
-17z"/>
<path d="M1300 416 c0 -2 7 -7 16 -10 8 -3 12 -2 9 4 -6 10 -25 14 -25 6z"/>
<path d="M4215 570 c-3 -5 -1 -10 4 -10 6 0 11 5 11 10 0 6 -2 10 -4 10 -3 0
-8 -4 -11 -10z"/>
<path d="M2465 470 c-16 -7 -17 -9 -3 -9 9 -1 20 4 23 9 7 11 7 11 -20 0z"/>
<path d="M3616 545 c-3 -8 -1 -15 4 -15 6 0 10 7 10 15 0 8 -2 15 -4 15 -2 0
-6 -7 -10 -15z"/>
<path d="M2100 4542 c-8 -4 -16 -13 -18 -21 -9 -44 79 -58 117 -17 13 14 18
26 13 30 -17 10 -96 16 -112 8z"/>
<path d="M4195 4080 c-3 -5 -2 -10 4 -10 5 0 13 5 16 10 3 6 2 10 -4 10 -5 0
-13 -4 -16 -10z"/>
<path d="M4218 4023 c6 -2 18 -2 25 0 6 3 1 5 -13 5 -14 0 -19 -2 -12 -5z"/>
<path d="M4290 4004 c0 -8 5 -12 10 -9 6 4 8 11 5 16 -9 14 -15 11 -15 -7z"/>
<path d="M1002 3828 c-23 -15 -36 -18 -44 -10 -7 7 -24 6 -57 -4 -25 -7 -59
-14 -76 -14 -22 0 -26 -3 -16 -9 8 -5 21 -7 29 -3 10 3 13 1 8 -6 -9 -15 -1
-15 24 -2 13 7 21 7 25 0 4 -6 11 -8 16 -4 5 3 7 9 5 13 -3 4 7 8 20 9 15 1
23 -2 19 -8 -4 -7 3 -8 22 -4 37 9 44 14 38 24 -3 5 3 13 12 19 10 5 16 12 13
15 -3 3 -20 -5 -38 -16z"/>
<path d="M1070 3830 c-9 -6 -10 -10 -3 -10 6 0 15 5 18 10 8 12 4 12 -15 0z"/>
<path d="M688 3808 c5 -5 16 -8 23 -6 8 3 3 7 -10 11 -17 4 -21 3 -13 -5z"/>
<path d="M4262 3750 c0 -19 2 -27 5 -17 2 9 2 25 0 35 -3 9 -5 1 -5 -18z"/>
<path d="M758 3763 c7 -3 16 -2 19 1 4 3 -2 6 -13 5 -11 0 -14 -3 -6 -6z"/>
<path d="M690 3616 c0 -2 8 -10 18 -17 15 -13 16 -12 3 4 -13 16 -21 21 -21
13z"/>
<path d="M4051 3546 c2 -2 24 -6 48 -9 29 -4 40 -2 30 4 -13 8 -88 14 -78 5z"/>
<path d="M681 3481 c-17 -16 -31 -34 -31 -40 0 -6 -7 -11 -15 -11 -8 0 -15 -5
-15 -11 0 -5 4 -8 9 -5 5 4 11 0 14 -6 2 -7 10 4 17 24 7 20 24 42 37 49 13 7
23 16 23 21 0 13 -6 10 -39 -21z"/>
<path d="M3948 3503 c7 -3 16 -2 19 1 4 3 -2 6 -13 5 -11 0 -14 -3 -6 -6z"/>
<path d="M915 3459 c-4 -6 -5 -12 -2 -15 2 -3 7 2 10 11 7 17 1 20 -8 4z"/>
<path d="M3940 3425 c0 -8 4 -15 10 -15 5 0 7 7 4 15 -4 8 -8 15 -10 15 -2 0
-4 -7 -4 -15z"/>
<path d="M686 3421 c-6 -9 92 -6 102 3 3 3 -18 6 -46 6 -28 0 -53 -4 -56 -9z"/>
<path d="M601 3386 c-16 -19 6 -34 22 -16 9 10 9 11 -2 5 -11 -6 -13 -4 -8 8
8 21 3 22 -12 3z"/>
<path d="M490 3380 c0 -6 7 -10 15 -10 8 0 15 2 15 4 0 2 -7 6 -15 10 -8 3
-15 1 -15 -4z"/>
<path d="M4221 3374 c0 -11 3 -14 6 -6 3 7 2 16 -1 19 -3 4 -6 -2 -5 -13z"/>
<path d="M591 3334 c0 -11 3 -14 6 -6 3 7 2 16 -1 19 -3 4 -6 -2 -5 -13z"/>
<path d="M3975 3280 c-3 -5 1 -10 10 -10 9 0 13 5 10 10 -3 6 -8 10 -10 10 -2
0 -7 -4 -10 -10z"/>
<path d="M95 3270 c3 -5 11 -10 16 -10 6 0 7 5 4 10 -3 6 -11 10 -16 10 -6 0
-7 -4 -4 -10z"/>
<path d="M3933 3260 c-13 -5 -23 -12 -23 -15 0 -9 16 -5 36 10 22 16 19 18
-13 5z"/>
<path d="M794 2898 c-19 -21 -19 -21 6 -14 14 4 39 11 55 16 33 9 33 10 -11
15 -23 3 -36 -1 -50 -17z"/>
<path d="M910 2895 c0 -8 2 -15 4 -15 2 0 6 7 10 15 3 8 1 15 -4 15 -6 0 -10
-7 -10 -15z"/>
</g>
</svg>
